<?xml version="1.0" encoding="utf-8" standalone="no"?>
<!DOCTYPE svg PUBLIC "-//W3C//DTD SVG 1.1//EN"
  "http://www.w3.org/Graphics/SVG/1.1/DTD/svg11.dtd">
<svg xmlns:xlink="http://www.w3.org/1999/xlink" width="490.981641pt" height="432.699375pt" viewBox="0 0 490.981641 432.699375" xmlns="http://www.w3.org/2000/svg" version="1.1">
 <metadata>
  <rdf:RDF xmlns:dc="http://purl.org/dc/elements/1.1/" xmlns:cc="http://creativecommons.org/ns#" xmlns:rdf="http://www.w3.org/1999/02/22-rdf-syntax-ns#">
   <cc:Work>
    <dc:type rdf:resource="http://purl.org/dc/dcmitype/StillImage"/>
    <dc:date>2023-03-23T16:36:46.866352</dc:date>
    <dc:format>image/svg+xml</dc:format>
    <dc:creator>
     <cc:Agent>
      <dc:title>Matplotlib v3.5.2, https://matplotlib.org/</dc:title>
     </cc:Agent>
    </dc:creator>
   </cc:Work>
  </rdf:RDF>
 </metadata>
 <defs>
  <style type="text/css">*{stroke-linejoin: round; stroke-linecap: butt}</style>
 </defs>
 <g id="figure_1">
  <g id="patch_1">
   <path d="M 0 432.699375 
L 490.981641 432.699375 
L 490.981641 0 
L 0 0 
z
" style="fill: #ffffff"/>
  </g>
  <g id="axes_1">
   <g id="patch_2">
    <path d="M 37.381641 398.925469 
L 483.781641 398.925469 
L 483.781641 10.845469 
L 37.381641 10.845469 
z
" style="fill: #ffffff"/>
   </g>
   <g id="matplotlib.axis_1">
    <g id="xtick_1">
     <g id="line2d_1">
      <defs>
       <path id="m10a58f8626" d="M 0 0 
L 0 -3.5 
" style="stroke: #000000; stroke-width: 0.8"/>
      </defs>
      <g>
       <use xlink:href="#m10a58f8626" x="86.659563" y="398.925469" style="stroke: #000000; stroke-width: 0.8"/>
      </g>
     </g>
     <g id="text_1">
      <!-- 2 -->
      <g transform="translate(84.034563 409.716406)scale(0.105 -0.105)">
       <defs>
        <path id="TimesNewRomanPSMT-32" d="M 2934 816 
L 2638 0 
L 138 0 
L 138 116 
Q 1241 1122 1691 1759 
Q 2141 2397 2141 2925 
Q 2141 3328 1894 3587 
Q 1647 3847 1303 3847 
Q 991 3847 742 3664 
Q 494 3481 375 3128 
L 259 3128 
Q 338 3706 661 4015 
Q 984 4325 1469 4325 
Q 1984 4325 2329 3994 
Q 2675 3663 2675 3213 
Q 2675 2891 2525 2569 
Q 2294 2063 1775 1497 
Q 997 647 803 472 
L 1909 472 
Q 2247 472 2383 497 
Q 2519 522 2628 598 
Q 2738 675 2819 816 
L 2934 816 
z
" transform="scale(0.015625)"/>
       </defs>
       <use xlink:href="#TimesNewRomanPSMT-32"/>
      </g>
     </g>
    </g>
    <g id="xtick_2">
     <g id="line2d_2">
      <g>
       <use xlink:href="#m10a58f8626" x="144.633589" y="398.925469" style="stroke: #000000; stroke-width: 0.8"/>
      </g>
     </g>
     <g id="text_2">
      <!-- 4 -->
      <g transform="translate(142.008589 409.716406)scale(0.105 -0.105)">
       <defs>
        <path id="TimesNewRomanPSMT-34" d="M 2978 1563 
L 2978 1119 
L 2409 1119 
L 2409 0 
L 1894 0 
L 1894 1119 
L 100 1119 
L 100 1519 
L 2066 4325 
L 2409 4325 
L 2409 1563 
L 2978 1563 
z
M 1894 1563 
L 1894 3666 
L 406 1563 
L 1894 1563 
z
" transform="scale(0.015625)"/>
       </defs>
       <use xlink:href="#TimesNewRomanPSMT-34"/>
      </g>
     </g>
    </g>
    <g id="xtick_3">
     <g id="line2d_3">
      <g>
       <use xlink:href="#m10a58f8626" x="202.607615" y="398.925469" style="stroke: #000000; stroke-width: 0.8"/>
      </g>
     </g>
     <g id="text_3">
      <!-- 6 -->
      <g transform="translate(199.982615 409.716406)scale(0.105 -0.105)">
       <defs>
        <path id="TimesNewRomanPSMT-36" d="M 2869 4325 
L 2869 4209 
Q 2456 4169 2195 4045 
Q 1934 3922 1679 3669 
Q 1425 3416 1258 3105 
Q 1091 2794 978 2366 
Q 1428 2675 1881 2675 
Q 2316 2675 2634 2325 
Q 2953 1975 2953 1425 
Q 2953 894 2631 456 
Q 2244 -75 1606 -75 
Q 1172 -75 869 213 
Q 275 772 275 1663 
Q 275 2231 503 2743 
Q 731 3256 1154 3653 
Q 1578 4050 1965 4187 
Q 2353 4325 2688 4325 
L 2869 4325 
z
M 925 2138 
Q 869 1716 869 1456 
Q 869 1156 980 804 
Q 1091 453 1309 247 
Q 1469 100 1697 100 
Q 1969 100 2183 356 
Q 2397 613 2397 1088 
Q 2397 1622 2184 2012 
Q 1972 2403 1581 2403 
Q 1463 2403 1327 2353 
Q 1191 2303 925 2138 
z
" transform="scale(0.015625)"/>
       </defs>
       <use xlink:href="#TimesNewRomanPSMT-36"/>
      </g>
     </g>
    </g>
    <g id="xtick_4">
     <g id="line2d_4">
      <g>
       <use xlink:href="#m10a58f8626" x="260.581641" y="398.925469" style="stroke: #000000; stroke-width: 0.8"/>
      </g>
     </g>
     <g id="text_4">
      <!-- 8 -->
      <g transform="translate(257.956641 409.716406)scale(0.105 -0.105)">
       <defs>
        <path id="TimesNewRomanPSMT-38" d="M 1228 2134 
Q 725 2547 579 2797 
Q 434 3047 434 3316 
Q 434 3728 753 4026 
Q 1072 4325 1600 4325 
Q 2113 4325 2425 4047 
Q 2738 3769 2738 3413 
Q 2738 3175 2569 2928 
Q 2400 2681 1866 2347 
Q 2416 1922 2594 1678 
Q 2831 1359 2831 1006 
Q 2831 559 2490 242 
Q 2150 -75 1597 -75 
Q 994 -75 656 303 
Q 388 606 388 966 
Q 388 1247 577 1523 
Q 766 1800 1228 2134 
z
M 1719 2469 
Q 2094 2806 2194 3001 
Q 2294 3197 2294 3444 
Q 2294 3772 2109 3958 
Q 1925 4144 1606 4144 
Q 1288 4144 1088 3959 
Q 888 3775 888 3528 
Q 888 3366 970 3203 
Q 1053 3041 1206 2894 
L 1719 2469 
z
M 1375 2016 
Q 1116 1797 991 1539 
Q 866 1281 866 981 
Q 866 578 1086 336 
Q 1306 94 1647 94 
Q 1984 94 2187 284 
Q 2391 475 2391 747 
Q 2391 972 2272 1150 
Q 2050 1481 1375 2016 
z
" transform="scale(0.015625)"/>
       </defs>
       <use xlink:href="#TimesNewRomanPSMT-38"/>
      </g>
     </g>
    </g>
    <g id="xtick_5">
     <g id="line2d_5">
      <g>
       <use xlink:href="#m10a58f8626" x="318.555667" y="398.925469" style="stroke: #000000; stroke-width: 0.8"/>
      </g>
     </g>
     <g id="text_5">
      <!-- 10 -->
      <g transform="translate(313.305667 409.716406)scale(0.105 -0.105)">
       <defs>
        <path id="TimesNewRomanPSMT-31" d="M 750 3822 
L 1781 4325 
L 1884 4325 
L 1884 747 
Q 1884 391 1914 303 
Q 1944 216 2037 169 
Q 2131 122 2419 116 
L 2419 0 
L 825 0 
L 825 116 
Q 1125 122 1212 167 
Q 1300 213 1334 289 
Q 1369 366 1369 747 
L 1369 3034 
Q 1369 3497 1338 3628 
Q 1316 3728 1258 3775 
Q 1200 3822 1119 3822 
Q 1003 3822 797 3725 
L 750 3822 
z
" transform="scale(0.015625)"/>
        <path id="TimesNewRomanPSMT-30" d="M 231 2094 
Q 231 2819 450 3342 
Q 669 3866 1031 4122 
Q 1313 4325 1613 4325 
Q 2100 4325 2488 3828 
Q 2972 3213 2972 2159 
Q 2972 1422 2759 906 
Q 2547 391 2217 158 
Q 1888 -75 1581 -75 
Q 975 -75 572 641 
Q 231 1244 231 2094 
z
M 844 2016 
Q 844 1141 1059 588 
Q 1238 122 1591 122 
Q 1759 122 1940 273 
Q 2122 425 2216 781 
Q 2359 1319 2359 2297 
Q 2359 3022 2209 3506 
Q 2097 3866 1919 4016 
Q 1791 4119 1609 4119 
Q 1397 4119 1231 3928 
Q 1006 3669 925 3112 
Q 844 2556 844 2016 
z
" transform="scale(0.015625)"/>
       </defs>
       <use xlink:href="#TimesNewRomanPSMT-31"/>
       <use xlink:href="#TimesNewRomanPSMT-30" x="50"/>
      </g>
     </g>
    </g>
    <g id="xtick_6">
     <g id="line2d_6">
      <g>
       <use xlink:href="#m10a58f8626" x="376.529693" y="398.925469" style="stroke: #000000; stroke-width: 0.8"/>
      </g>
     </g>
     <g id="text_6">
      <!-- 12 -->
      <g transform="translate(371.279693 409.716406)scale(0.105 -0.105)">
       <use xlink:href="#TimesNewRomanPSMT-31"/>
       <use xlink:href="#TimesNewRomanPSMT-32" x="50"/>
      </g>
     </g>
    </g>
    <g id="xtick_7">
     <g id="line2d_7">
      <g>
       <use xlink:href="#m10a58f8626" x="434.503719" y="398.925469" style="stroke: #000000; stroke-width: 0.8"/>
      </g>
     </g>
     <g id="text_7">
      <!-- 14 -->
      <g transform="translate(429.253719 409.716406)scale(0.105 -0.105)">
       <use xlink:href="#TimesNewRomanPSMT-31"/>
       <use xlink:href="#TimesNewRomanPSMT-34" x="50"/>
      </g>
     </g>
    </g>
    <g id="text_8">
     <!-- Round -->
     <g transform="translate(246.579727 423.253359)scale(0.105 -0.105)">
      <defs>
       <path id="TimesNewRomanPSMT-52" d="M 4325 0 
L 3194 0 
L 1759 1981 
Q 1600 1975 1500 1975 
Q 1459 1975 1412 1976 
Q 1366 1978 1316 1981 
L 1316 750 
Q 1316 350 1403 253 
Q 1522 116 1759 116 
L 1925 116 
L 1925 0 
L 109 0 
L 109 116 
L 269 116 
Q 538 116 653 291 
Q 719 388 719 750 
L 719 3488 
Q 719 3888 631 3984 
Q 509 4122 269 4122 
L 109 4122 
L 109 4238 
L 1653 4238 
Q 2328 4238 2648 4139 
Q 2969 4041 3192 3777 
Q 3416 3513 3416 3147 
Q 3416 2756 3161 2468 
Q 2906 2181 2372 2063 
L 3247 847 
Q 3547 428 3762 290 
Q 3978 153 4325 116 
L 4325 0 
z
M 1316 2178 
Q 1375 2178 1419 2176 
Q 1463 2175 1491 2175 
Q 2097 2175 2405 2437 
Q 2713 2700 2713 3106 
Q 2713 3503 2464 3751 
Q 2216 4000 1806 4000 
Q 1625 4000 1316 3941 
L 1316 2178 
z
" transform="scale(0.015625)"/>
       <path id="TimesNewRomanPSMT-6f" d="M 1600 2947 
Q 2250 2947 2644 2453 
Q 2978 2031 2978 1484 
Q 2978 1100 2793 706 
Q 2609 313 2286 112 
Q 1963 -88 1566 -88 
Q 919 -88 538 428 
Q 216 863 216 1403 
Q 216 1797 411 2186 
Q 606 2575 925 2761 
Q 1244 2947 1600 2947 
z
M 1503 2744 
Q 1338 2744 1170 2645 
Q 1003 2547 900 2300 
Q 797 2053 797 1666 
Q 797 1041 1045 587 
Q 1294 134 1700 134 
Q 2003 134 2200 384 
Q 2397 634 2397 1244 
Q 2397 2006 2069 2444 
Q 1847 2744 1503 2744 
z
" transform="scale(0.015625)"/>
       <path id="TimesNewRomanPSMT-75" d="M 2709 2863 
L 2709 1128 
Q 2709 631 2732 520 
Q 2756 409 2807 365 
Q 2859 322 2928 322 
Q 3025 322 3147 375 
L 3191 266 
L 2334 -88 
L 2194 -88 
L 2194 519 
Q 1825 119 1631 15 
Q 1438 -88 1222 -88 
Q 981 -88 804 51 
Q 628 191 559 409 
Q 491 628 491 1028 
L 491 2306 
Q 491 2509 447 2587 
Q 403 2666 317 2708 
Q 231 2750 6 2747 
L 6 2863 
L 1009 2863 
L 1009 947 
Q 1009 547 1148 422 
Q 1288 297 1484 297 
Q 1619 297 1789 381 
Q 1959 466 2194 703 
L 2194 2325 
Q 2194 2569 2105 2655 
Q 2016 2741 1734 2747 
L 1734 2863 
L 2709 2863 
z
" transform="scale(0.015625)"/>
       <path id="TimesNewRomanPSMT-6e" d="M 1034 2341 
Q 1538 2947 1994 2947 
Q 2228 2947 2397 2830 
Q 2566 2713 2666 2444 
Q 2734 2256 2734 1869 
L 2734 647 
Q 2734 375 2778 278 
Q 2813 200 2889 156 
Q 2966 113 3172 113 
L 3172 0 
L 1756 0 
L 1756 113 
L 1816 113 
Q 2016 113 2095 173 
Q 2175 234 2206 353 
Q 2219 400 2219 647 
L 2219 1819 
Q 2219 2209 2117 2386 
Q 2016 2563 1775 2563 
Q 1403 2563 1034 2156 
L 1034 647 
Q 1034 356 1069 288 
Q 1113 197 1189 155 
Q 1266 113 1500 113 
L 1500 0 
L 84 0 
L 84 113 
L 147 113 
Q 366 113 442 223 
Q 519 334 519 647 
L 519 1709 
Q 519 2225 495 2337 
Q 472 2450 423 2490 
Q 375 2531 294 2531 
Q 206 2531 84 2484 
L 38 2597 
L 900 2947 
L 1034 2947 
L 1034 2341 
z
" transform="scale(0.015625)"/>
       <path id="TimesNewRomanPSMT-64" d="M 2222 322 
Q 2013 103 1813 7 
Q 1613 -88 1381 -88 
Q 913 -88 563 304 
Q 213 697 213 1313 
Q 213 1928 600 2439 
Q 988 2950 1597 2950 
Q 1975 2950 2222 2709 
L 2222 3238 
Q 2222 3728 2198 3840 
Q 2175 3953 2125 3993 
Q 2075 4034 2000 4034 
Q 1919 4034 1784 3984 
L 1744 4094 
L 2597 4444 
L 2738 4444 
L 2738 1134 
Q 2738 631 2761 520 
Q 2784 409 2836 365 
Q 2888 322 2956 322 
Q 3041 322 3181 375 
L 3216 266 
L 2366 -88 
L 2222 -88 
L 2222 322 
z
M 2222 541 
L 2222 2016 
Q 2203 2228 2109 2403 
Q 2016 2578 1861 2667 
Q 1706 2756 1559 2756 
Q 1284 2756 1069 2509 
Q 784 2184 784 1559 
Q 784 928 1059 592 
Q 1334 256 1672 256 
Q 1956 256 2222 541 
z
" transform="scale(0.015625)"/>
      </defs>
      <use xlink:href="#TimesNewRomanPSMT-52"/>
      <use xlink:href="#TimesNewRomanPSMT-6f" x="66.699219"/>
      <use xlink:href="#TimesNewRomanPSMT-75" x="116.699219"/>
      <use xlink:href="#TimesNewRomanPSMT-6e" x="166.699219"/>
      <use xlink:href="#TimesNewRomanPSMT-64" x="216.699219"/>
     </g>
    </g>
   </g>
   <g id="matplotlib.axis_2">
    <g id="ytick_1">
     <g id="line2d_8">
      <defs>
       <path id="mf12547a366" d="M 0 0 
L 3.5 0 
" style="stroke: #000000; stroke-width: 0.8"/>
      </defs>
      <g>
       <use xlink:href="#mf12547a366" x="37.381641" y="398.925469" style="stroke: #000000; stroke-width: 0.8"/>
      </g>
     </g>
     <g id="text_9">
      <!-- 0.0 -->
      <g transform="translate(20.756641 402.570938)scale(0.105 -0.105)">
       <defs>
        <path id="TimesNewRomanPSMT-2e" d="M 800 606 
Q 947 606 1047 504 
Q 1147 403 1147 259 
Q 1147 116 1045 14 
Q 944 -88 800 -88 
Q 656 -88 554 14 
Q 453 116 453 259 
Q 453 406 554 506 
Q 656 606 800 606 
z
" transform="scale(0.015625)"/>
       </defs>
       <use xlink:href="#TimesNewRomanPSMT-30"/>
       <use xlink:href="#TimesNewRomanPSMT-2e" x="50"/>
       <use xlink:href="#TimesNewRomanPSMT-30" x="75"/>
      </g>
     </g>
    </g>
    <g id="ytick_2">
     <g id="line2d_9">
      <g>
       <use xlink:href="#mf12547a366" x="37.381641" y="343.485469" style="stroke: #000000; stroke-width: 0.8"/>
      </g>
     </g>
     <g id="text_10">
      <!-- 0.5 -->
      <g transform="translate(20.756641 347.130938)scale(0.105 -0.105)">
       <defs>
        <path id="TimesNewRomanPSMT-35" d="M 2778 4238 
L 2534 3706 
L 1259 3706 
L 981 3138 
Q 1809 3016 2294 2522 
Q 2709 2097 2709 1522 
Q 2709 1188 2573 903 
Q 2438 619 2231 419 
Q 2025 219 1772 97 
Q 1413 -75 1034 -75 
Q 653 -75 479 54 
Q 306 184 306 341 
Q 306 428 378 495 
Q 450 563 559 563 
Q 641 563 702 538 
Q 763 513 909 409 
Q 1144 247 1384 247 
Q 1750 247 2026 523 
Q 2303 800 2303 1197 
Q 2303 1581 2056 1914 
Q 1809 2247 1375 2428 
Q 1034 2569 447 2591 
L 1259 4238 
L 2778 4238 
z
" transform="scale(0.015625)"/>
       </defs>
       <use xlink:href="#TimesNewRomanPSMT-30"/>
       <use xlink:href="#TimesNewRomanPSMT-2e" x="50"/>
       <use xlink:href="#TimesNewRomanPSMT-35" x="75"/>
      </g>
     </g>
    </g>
    <g id="ytick_3">
     <g id="line2d_10">
      <g>
       <use xlink:href="#mf12547a366" x="37.381641" y="288.045469" style="stroke: #000000; stroke-width: 0.8"/>
      </g>
     </g>
     <g id="text_11">
      <!-- 1.0 -->
      <g transform="translate(20.756641 291.690938)scale(0.105 -0.105)">
       <use xlink:href="#TimesNewRomanPSMT-31"/>
       <use xlink:href="#TimesNewRomanPSMT-2e" x="50"/>
       <use xlink:href="#TimesNewRomanPSMT-30" x="75"/>
      </g>
     </g>
    </g>
    <g id="ytick_4">
     <g id="line2d_11">
      <g>
       <use xlink:href="#mf12547a366" x="37.381641" y="232.605469" style="stroke: #000000; stroke-width: 0.8"/>
      </g>
     </g>
     <g id="text_12">
      <!-- 1.5 -->
      <g transform="translate(20.756641 236.250937)scale(0.105 -0.105)">
       <use xlink:href="#TimesNewRomanPSMT-31"/>
       <use xlink:href="#TimesNewRomanPSMT-2e" x="50"/>
       <use xlink:href="#TimesNewRomanPSMT-35" x="75"/>
      </g>
     </g>
    </g>
    <g id="ytick_5">
     <g id="line2d_12">
      <g>
       <use xlink:href="#mf12547a366" x="37.381641" y="177.165469" style="stroke: #000000; stroke-width: 0.8"/>
      </g>
     </g>
     <g id="text_13">
      <!-- 2.0 -->
      <g transform="translate(20.756641 180.810937)scale(0.105 -0.105)">
       <use xlink:href="#TimesNewRomanPSMT-32"/>
       <use xlink:href="#TimesNewRomanPSMT-2e" x="50"/>
       <use xlink:href="#TimesNewRomanPSMT-30" x="75"/>
      </g>
     </g>
    </g>
    <g id="ytick_6">
     <g id="line2d_13">
      <g>
       <use xlink:href="#mf12547a366" x="37.381641" y="121.725469" style="stroke: #000000; stroke-width: 0.8"/>
      </g>
     </g>
     <g id="text_14">
      <!-- 2.5 -->
      <g transform="translate(20.756641 125.370938)scale(0.105 -0.105)">
       <use xlink:href="#TimesNewRomanPSMT-32"/>
       <use xlink:href="#TimesNewRomanPSMT-2e" x="50"/>
       <use xlink:href="#TimesNewRomanPSMT-35" x="75"/>
      </g>
     </g>
    </g>
    <g id="ytick_7">
     <g id="line2d_14">
      <g>
       <use xlink:href="#mf12547a366" x="37.381641" y="66.285469" style="stroke: #000000; stroke-width: 0.8"/>
      </g>
     </g>
     <g id="text_15">
      <!-- 3.0 -->
      <g transform="translate(20.756641 69.930937)scale(0.105 -0.105)">
       <defs>
        <path id="TimesNewRomanPSMT-33" d="M 325 3431 
Q 506 3859 782 4092 
Q 1059 4325 1472 4325 
Q 1981 4325 2253 3994 
Q 2459 3747 2459 3466 
Q 2459 3003 1878 2509 
Q 2269 2356 2469 2072 
Q 2669 1788 2669 1403 
Q 2669 853 2319 450 
Q 1863 -75 997 -75 
Q 569 -75 414 31 
Q 259 138 259 259 
Q 259 350 332 419 
Q 406 488 509 488 
Q 588 488 669 463 
Q 722 447 909 348 
Q 1097 250 1169 231 
Q 1284 197 1416 197 
Q 1734 197 1970 444 
Q 2206 691 2206 1028 
Q 2206 1275 2097 1509 
Q 2016 1684 1919 1775 
Q 1784 1900 1550 2001 
Q 1316 2103 1072 2103 
L 972 2103 
L 972 2197 
Q 1219 2228 1467 2375 
Q 1716 2522 1828 2728 
Q 1941 2934 1941 3181 
Q 1941 3503 1739 3701 
Q 1538 3900 1238 3900 
Q 753 3900 428 3381 
L 325 3431 
z
" transform="scale(0.015625)"/>
       </defs>
       <use xlink:href="#TimesNewRomanPSMT-33"/>
       <use xlink:href="#TimesNewRomanPSMT-2e" x="50"/>
       <use xlink:href="#TimesNewRomanPSMT-30" x="75"/>
      </g>
     </g>
    </g>
    <g id="ytick_8">
     <g id="line2d_15">
      <g>
       <use xlink:href="#mf12547a366" x="37.381641" y="10.845469" style="stroke: #000000; stroke-width: 0.8"/>
      </g>
     </g>
     <g id="text_16">
      <!-- 3.5 -->
      <g transform="translate(20.756641 14.490938)scale(0.105 -0.105)">
       <use xlink:href="#TimesNewRomanPSMT-33"/>
       <use xlink:href="#TimesNewRomanPSMT-2e" x="50"/>
       <use xlink:href="#TimesNewRomanPSMT-35" x="75"/>
      </g>
     </g>
    </g>
    <g id="text_17">
     <!-- Remaining energy/J -->
     <g transform="translate(14.490937 246.930586)rotate(-90)scale(0.105 -0.105)">
      <defs>
       <path id="TimesNewRomanPSMT-65" d="M 681 1784 
Q 678 1147 991 784 
Q 1303 422 1725 422 
Q 2006 422 2214 576 
Q 2422 731 2563 1106 
L 2659 1044 
Q 2594 616 2278 264 
Q 1963 -88 1488 -88 
Q 972 -88 605 314 
Q 238 716 238 1394 
Q 238 2128 614 2539 
Q 991 2950 1559 2950 
Q 2041 2950 2350 2633 
Q 2659 2316 2659 1784 
L 681 1784 
z
M 681 1966 
L 2006 1966 
Q 1991 2241 1941 2353 
Q 1863 2528 1708 2628 
Q 1553 2728 1384 2728 
Q 1125 2728 920 2526 
Q 716 2325 681 1966 
z
" transform="scale(0.015625)"/>
       <path id="TimesNewRomanPSMT-6d" d="M 1050 2338 
Q 1363 2650 1419 2697 
Q 1559 2816 1721 2881 
Q 1884 2947 2044 2947 
Q 2313 2947 2506 2790 
Q 2700 2634 2766 2338 
Q 3088 2713 3309 2830 
Q 3531 2947 3766 2947 
Q 3994 2947 4170 2830 
Q 4347 2713 4450 2447 
Q 4519 2266 4519 1878 
L 4519 647 
Q 4519 378 4559 278 
Q 4591 209 4675 161 
Q 4759 113 4950 113 
L 4950 0 
L 3538 0 
L 3538 113 
L 3597 113 
Q 3781 113 3884 184 
Q 3956 234 3988 344 
Q 4000 397 4000 647 
L 4000 1878 
Q 4000 2228 3916 2372 
Q 3794 2572 3525 2572 
Q 3359 2572 3192 2489 
Q 3025 2406 2788 2181 
L 2781 2147 
L 2788 2013 
L 2788 647 
Q 2788 353 2820 281 
Q 2853 209 2943 161 
Q 3034 113 3253 113 
L 3253 0 
L 1806 0 
L 1806 113 
Q 2044 113 2133 169 
Q 2222 225 2256 338 
Q 2272 391 2272 647 
L 2272 1878 
Q 2272 2228 2169 2381 
Q 2031 2581 1784 2581 
Q 1616 2581 1450 2491 
Q 1191 2353 1050 2181 
L 1050 647 
Q 1050 366 1089 281 
Q 1128 197 1204 155 
Q 1281 113 1516 113 
L 1516 0 
L 100 0 
L 100 113 
Q 297 113 375 155 
Q 453 197 493 289 
Q 534 381 534 647 
L 534 1741 
Q 534 2213 506 2350 
Q 484 2453 437 2492 
Q 391 2531 309 2531 
Q 222 2531 100 2484 
L 53 2597 
L 916 2947 
L 1050 2947 
L 1050 2338 
z
" transform="scale(0.015625)"/>
       <path id="TimesNewRomanPSMT-61" d="M 1822 413 
Q 1381 72 1269 19 
Q 1100 -59 909 -59 
Q 613 -59 420 144 
Q 228 347 228 678 
Q 228 888 322 1041 
Q 450 1253 767 1440 
Q 1084 1628 1822 1897 
L 1822 2009 
Q 1822 2438 1686 2597 
Q 1550 2756 1291 2756 
Q 1094 2756 978 2650 
Q 859 2544 859 2406 
L 866 2225 
Q 866 2081 792 2003 
Q 719 1925 600 1925 
Q 484 1925 411 2006 
Q 338 2088 338 2228 
Q 338 2497 613 2722 
Q 888 2947 1384 2947 
Q 1766 2947 2009 2819 
Q 2194 2722 2281 2516 
Q 2338 2381 2338 1966 
L 2338 994 
Q 2338 584 2353 492 
Q 2369 400 2405 369 
Q 2441 338 2488 338 
Q 2538 338 2575 359 
Q 2641 400 2828 588 
L 2828 413 
Q 2478 -56 2159 -56 
Q 2006 -56 1915 50 
Q 1825 156 1822 413 
z
M 1822 616 
L 1822 1706 
Q 1350 1519 1213 1441 
Q 966 1303 859 1153 
Q 753 1003 753 825 
Q 753 600 887 451 
Q 1022 303 1197 303 
Q 1434 303 1822 616 
z
" transform="scale(0.015625)"/>
       <path id="TimesNewRomanPSMT-69" d="M 928 4444 
Q 1059 4444 1151 4351 
Q 1244 4259 1244 4128 
Q 1244 3997 1151 3903 
Q 1059 3809 928 3809 
Q 797 3809 703 3903 
Q 609 3997 609 4128 
Q 609 4259 701 4351 
Q 794 4444 928 4444 
z
M 1188 2947 
L 1188 647 
Q 1188 378 1227 289 
Q 1266 200 1342 156 
Q 1419 113 1622 113 
L 1622 0 
L 231 0 
L 231 113 
Q 441 113 512 153 
Q 584 194 626 287 
Q 669 381 669 647 
L 669 1750 
Q 669 2216 641 2353 
Q 619 2453 572 2492 
Q 525 2531 444 2531 
Q 356 2531 231 2484 
L 188 2597 
L 1050 2947 
L 1188 2947 
z
" transform="scale(0.015625)"/>
       <path id="TimesNewRomanPSMT-67" d="M 966 1044 
Q 703 1172 562 1401 
Q 422 1631 422 1909 
Q 422 2334 742 2640 
Q 1063 2947 1563 2947 
Q 1972 2947 2272 2747 
L 2878 2747 
Q 3013 2747 3034 2739 
Q 3056 2731 3066 2713 
Q 3084 2684 3084 2613 
Q 3084 2531 3069 2500 
Q 3059 2484 3036 2475 
Q 3013 2466 2878 2466 
L 2506 2466 
Q 2681 2241 2681 1891 
Q 2681 1491 2375 1206 
Q 2069 922 1553 922 
Q 1341 922 1119 984 
Q 981 866 932 777 
Q 884 688 884 625 
Q 884 572 936 522 
Q 988 472 1138 450 
Q 1225 438 1575 428 
Q 2219 413 2409 384 
Q 2700 344 2873 169 
Q 3047 -6 3047 -263 
Q 3047 -616 2716 -925 
Q 2228 -1381 1444 -1381 
Q 841 -1381 425 -1109 
Q 191 -953 191 -784 
Q 191 -709 225 -634 
Q 278 -519 444 -313 
Q 466 -284 763 25 
Q 600 122 533 198 
Q 466 275 466 372 
Q 466 481 555 628 
Q 644 775 966 1044 
z
M 1509 2797 
Q 1278 2797 1122 2612 
Q 966 2428 966 2047 
Q 966 1553 1178 1281 
Q 1341 1075 1591 1075 
Q 1828 1075 1981 1253 
Q 2134 1431 2134 1813 
Q 2134 2309 1919 2591 
Q 1759 2797 1509 2797 
z
M 934 0 
Q 788 -159 713 -296 
Q 638 -434 638 -550 
Q 638 -700 819 -813 
Q 1131 -1006 1722 -1006 
Q 2284 -1006 2551 -807 
Q 2819 -609 2819 -384 
Q 2819 -222 2659 -153 
Q 2497 -84 2016 -72 
Q 1313 -53 934 0 
z
" transform="scale(0.015625)"/>
       <path id="TimesNewRomanPSMT-20" transform="scale(0.015625)"/>
       <path id="TimesNewRomanPSMT-72" d="M 1038 2947 
L 1038 2303 
Q 1397 2947 1775 2947 
Q 1947 2947 2059 2842 
Q 2172 2738 2172 2600 
Q 2172 2478 2090 2393 
Q 2009 2309 1897 2309 
Q 1788 2309 1652 2417 
Q 1516 2525 1450 2525 
Q 1394 2525 1328 2463 
Q 1188 2334 1038 2041 
L 1038 669 
Q 1038 431 1097 309 
Q 1138 225 1241 169 
Q 1344 113 1538 113 
L 1538 0 
L 72 0 
L 72 113 
Q 291 113 397 181 
Q 475 231 506 341 
Q 522 394 522 644 
L 522 1753 
Q 522 2253 501 2348 
Q 481 2444 426 2487 
Q 372 2531 291 2531 
Q 194 2531 72 2484 
L 41 2597 
L 906 2947 
L 1038 2947 
z
" transform="scale(0.015625)"/>
       <path id="TimesNewRomanPSMT-79" d="M 38 2863 
L 1372 2863 
L 1372 2747 
L 1306 2747 
Q 1166 2747 1095 2686 
Q 1025 2625 1025 2534 
Q 1025 2413 1128 2197 
L 1825 753 
L 2466 2334 
Q 2519 2463 2519 2588 
Q 2519 2644 2497 2672 
Q 2472 2706 2419 2726 
Q 2366 2747 2231 2747 
L 2231 2863 
L 3163 2863 
L 3163 2747 
Q 3047 2734 2984 2696 
Q 2922 2659 2847 2556 
Q 2819 2513 2741 2316 
L 1575 -541 
Q 1406 -956 1132 -1168 
Q 859 -1381 606 -1381 
Q 422 -1381 303 -1275 
Q 184 -1169 184 -1031 
Q 184 -900 270 -820 
Q 356 -741 506 -741 
Q 609 -741 788 -809 
Q 913 -856 944 -856 
Q 1038 -856 1148 -759 
Q 1259 -663 1372 -384 
L 1575 113 
L 547 2272 
Q 500 2369 397 2513 
Q 319 2622 269 2659 
Q 197 2709 38 2747 
L 38 2863 
z
" transform="scale(0.015625)"/>
       <path id="TimesNewRomanPSMT-2f" d="M 1794 4444 
L 259 -88 
L 9 -88 
L 1544 4444 
L 1794 4444 
z
" transform="scale(0.015625)"/>
       <path id="TimesNewRomanPSMT-4a" d="M 638 4122 
L 638 4238 
L 2453 4238 
L 2453 4122 
L 2300 4122 
Q 2041 4122 1922 3969 
Q 1847 3869 1847 3488 
L 1847 1416 
Q 1847 938 1742 641 
Q 1638 344 1381 123 
Q 1125 -97 763 -97 
Q 469 -97 300 48 
Q 131 194 131 381 
Q 131 534 209 613 
Q 313 709 450 709 
Q 550 709 629 643 
Q 709 578 831 294 
Q 903 125 1016 125 
Q 1100 125 1173 228 
Q 1247 331 1247 594 
L 1247 3488 
Q 1247 3809 1206 3913 
Q 1175 3991 1075 4047 
Q 941 4122 791 4122 
L 638 4122 
z
" transform="scale(0.015625)"/>
      </defs>
      <use xlink:href="#TimesNewRomanPSMT-52"/>
      <use xlink:href="#TimesNewRomanPSMT-65" x="66.699219"/>
      <use xlink:href="#TimesNewRomanPSMT-6d" x="111.083984"/>
      <use xlink:href="#TimesNewRomanPSMT-61" x="188.867188"/>
      <use xlink:href="#TimesNewRomanPSMT-69" x="233.251953"/>
      <use xlink:href="#TimesNewRomanPSMT-6e" x="261.035156"/>
      <use xlink:href="#TimesNewRomanPSMT-69" x="311.035156"/>
      <use xlink:href="#TimesNewRomanPSMT-6e" x="338.818359"/>
      <use xlink:href="#TimesNewRomanPSMT-67" x="388.818359"/>
      <use xlink:href="#TimesNewRomanPSMT-20" x="438.818359"/>
      <use xlink:href="#TimesNewRomanPSMT-65" x="463.818359"/>
      <use xlink:href="#TimesNewRomanPSMT-6e" x="508.203125"/>
      <use xlink:href="#TimesNewRomanPSMT-65" x="558.203125"/>
      <use xlink:href="#TimesNewRomanPSMT-72" x="602.587891"/>
      <use xlink:href="#TimesNewRomanPSMT-67" x="634.138672"/>
      <use xlink:href="#TimesNewRomanPSMT-79" x="684.138672"/>
      <use xlink:href="#TimesNewRomanPSMT-2f" x="734.138672"/>
      <use xlink:href="#TimesNewRomanPSMT-4a" x="761.921875"/>
     </g>
    </g>
   </g>
   <g id="line2d_16">
    <path d="M 57.67255 55.197469 
L 86.659563 102.875869 
L 115.646576 135.031069 
L 144.633589 183.818269 
L 173.620602 191.579869 
L 202.607615 232.605469 
L 231.594628 278.066269 
L 260.581641 325.744669 
L 289.568654 334.615069 
L 318.555667 382.293469 
L 347.54268 398.925469 
L 376.529693 398.925469 
L 405.516706 398.925469 
L 434.503719 398.925469 
L 463.490732 398.925469 
" clip-path="url(#pddf79ba2cd)" style="fill: none; stroke-dasharray: 5.55,2.4; stroke-dashoffset: 0; stroke: #000000; stroke-width: 1.5"/>
    <defs>
     <path id="mf03de9dc1e" d="M 0 3 
C 0.795609 3 1.55874 2.683901 2.12132 2.12132 
C 2.683901 1.55874 3 0.795609 3 0 
C 3 -0.795609 2.683901 -1.55874 2.12132 -2.12132 
C 1.55874 -2.683901 0.795609 -3 0 -3 
C -0.795609 -3 -1.55874 -2.683901 -2.12132 -2.12132 
C -2.683901 -1.55874 -3 -0.795609 -3 0 
C -3 0.795609 -2.683901 1.55874 -2.12132 2.12132 
C -1.55874 2.683901 -0.795609 3 0 3 
z
" style="stroke: #000000"/>
    </defs>
    <g clip-path="url(#pddf79ba2cd)">
     <use xlink:href="#mf03de9dc1e" x="57.67255" y="55.197469" style="stroke: #000000"/>
     <use xlink:href="#mf03de9dc1e" x="86.659563" y="102.875869" style="stroke: #000000"/>
     <use xlink:href="#mf03de9dc1e" x="115.646576" y="135.031069" style="stroke: #000000"/>
     <use xlink:href="#mf03de9dc1e" x="144.633589" y="183.818269" style="stroke: #000000"/>
     <use xlink:href="#mf03de9dc1e" x="173.620602" y="191.579869" style="stroke: #000000"/>
     <use xlink:href="#mf03de9dc1e" x="202.607615" y="232.605469" style="stroke: #000000"/>
     <use xlink:href="#mf03de9dc1e" x="231.594628" y="278.066269" style="stroke: #000000"/>
     <use xlink:href="#mf03de9dc1e" x="260.581641" y="325.744669" style="stroke: #000000"/>
     <use xlink:href="#mf03de9dc1e" x="289.568654" y="334.615069" style="stroke: #000000"/>
     <use xlink:href="#mf03de9dc1e" x="318.555667" y="382.293469" style="stroke: #000000"/>
     <use xlink:href="#mf03de9dc1e" x="347.54268" y="398.925469" style="stroke: #000000"/>
     <use xlink:href="#mf03de9dc1e" x="376.529693" y="398.925469" style="stroke: #000000"/>
     <use xlink:href="#mf03de9dc1e" x="405.516706" y="398.925469" style="stroke: #000000"/>
     <use xlink:href="#mf03de9dc1e" x="434.503719" y="398.925469" style="stroke: #000000"/>
     <use xlink:href="#mf03de9dc1e" x="463.490732" y="398.925469" style="stroke: #000000"/>
    </g>
   </g>
   <g id="line2d_17">
    <path d="M 57.67255 75.155869 
L 86.659563 107.311069 
L 115.646576 139.466269 
L 144.633589 171.621469 
L 173.620602 219.299869 
L 202.607615 251.455069 
L 231.594628 283.610269 
L 260.581641 315.765469 
L 289.568654 363.443869 
L 318.555667 395.599069 
L 347.54268 398.925469 
L 376.529693 398.925469 
L 405.516706 398.925469 
L 434.503719 398.925469 
L 463.490732 398.925469 
" clip-path="url(#pddf79ba2cd)" style="fill: none; stroke-dasharray: 5.55,2.4; stroke-dashoffset: 0; stroke: #000000; stroke-width: 1.5"/>
    <defs>
     <path id="mf1259e1e82" d="M -0 3 
L 3 -3 
L -3 -3 
z
" style="stroke: #000000; stroke-linejoin: miter"/>
    </defs>
    <g clip-path="url(#pddf79ba2cd)">
     <use xlink:href="#mf1259e1e82" x="57.67255" y="75.155869" style="stroke: #000000; stroke-linejoin: miter"/>
     <use xlink:href="#mf1259e1e82" x="86.659563" y="107.311069" style="stroke: #000000; stroke-linejoin: miter"/>
     <use xlink:href="#mf1259e1e82" x="115.646576" y="139.466269" style="stroke: #000000; stroke-linejoin: miter"/>
     <use xlink:href="#mf1259e1e82" x="144.633589" y="171.621469" style="stroke: #000000; stroke-linejoin: miter"/>
     <use xlink:href="#mf1259e1e82" x="173.620602" y="219.299869" style="stroke: #000000; stroke-linejoin: miter"/>
     <use xlink:href="#mf1259e1e82" x="202.607615" y="251.455069" style="stroke: #000000; stroke-linejoin: miter"/>
     <use xlink:href="#mf1259e1e82" x="231.594628" y="283.610269" style="stroke: #000000; stroke-linejoin: miter"/>
     <use xlink:href="#mf1259e1e82" x="260.581641" y="315.765469" style="stroke: #000000; stroke-linejoin: miter"/>
     <use xlink:href="#mf1259e1e82" x="289.568654" y="363.443869" style="stroke: #000000; stroke-linejoin: miter"/>
     <use xlink:href="#mf1259e1e82" x="318.555667" y="395.599069" style="stroke: #000000; stroke-linejoin: miter"/>
     <use xlink:href="#mf1259e1e82" x="347.54268" y="398.925469" style="stroke: #000000; stroke-linejoin: miter"/>
     <use xlink:href="#mf1259e1e82" x="376.529693" y="398.925469" style="stroke: #000000; stroke-linejoin: miter"/>
     <use xlink:href="#mf1259e1e82" x="405.516706" y="398.925469" style="stroke: #000000; stroke-linejoin: miter"/>
     <use xlink:href="#mf1259e1e82" x="434.503719" y="398.925469" style="stroke: #000000; stroke-linejoin: miter"/>
     <use xlink:href="#mf1259e1e82" x="463.490732" y="398.925469" style="stroke: #000000; stroke-linejoin: miter"/>
    </g>
   </g>
   <g id="line2d_18">
    <path d="M 57.67255 69.611869 
L 86.659563 101.767069 
L 115.646576 146.119069 
L 144.633589 178.274269 
L 173.620602 227.061469 
L 202.607615 259.216669 
L 231.594628 290.263069 
L 260.581641 322.418269 
L 289.568654 371.205469 
L 318.555667 398.925469 
L 347.54268 398.925469 
L 376.529693 398.925469 
L 405.516706 398.925469 
L 434.503719 398.925469 
L 463.490732 398.925469 
" clip-path="url(#pddf79ba2cd)" style="fill: none; stroke-dasharray: 5.55,2.4; stroke-dashoffset: 0; stroke: #000000; stroke-width: 1.5"/>
    <defs>
     <path id="m57a98e92ad" d="M 0 0 
L 0 3 
M 0 0 
L 2.4 -1.5 
M 0 0 
L -2.4 -1.5 
" style="stroke: #000000"/>
    </defs>
    <g clip-path="url(#pddf79ba2cd)">
     <use xlink:href="#m57a98e92ad" x="57.67255" y="69.611869" style="stroke: #000000"/>
     <use xlink:href="#m57a98e92ad" x="86.659563" y="101.767069" style="stroke: #000000"/>
     <use xlink:href="#m57a98e92ad" x="115.646576" y="146.119069" style="stroke: #000000"/>
     <use xlink:href="#m57a98e92ad" x="144.633589" y="178.274269" style="stroke: #000000"/>
     <use xlink:href="#m57a98e92ad" x="173.620602" y="227.061469" style="stroke: #000000"/>
     <use xlink:href="#m57a98e92ad" x="202.607615" y="259.216669" style="stroke: #000000"/>
     <use xlink:href="#m57a98e92ad" x="231.594628" y="290.263069" style="stroke: #000000"/>
     <use xlink:href="#m57a98e92ad" x="260.581641" y="322.418269" style="stroke: #000000"/>
     <use xlink:href="#m57a98e92ad" x="289.568654" y="371.205469" style="stroke: #000000"/>
     <use xlink:href="#m57a98e92ad" x="318.555667" y="398.925469" style="stroke: #000000"/>
     <use xlink:href="#m57a98e92ad" x="347.54268" y="398.925469" style="stroke: #000000"/>
     <use xlink:href="#m57a98e92ad" x="376.529693" y="398.925469" style="stroke: #000000"/>
     <use xlink:href="#m57a98e92ad" x="405.516706" y="398.925469" style="stroke: #000000"/>
     <use xlink:href="#m57a98e92ad" x="434.503719" y="398.925469" style="stroke: #000000"/>
     <use xlink:href="#m57a98e92ad" x="463.490732" y="398.925469" style="stroke: #000000"/>
    </g>
   </g>
   <g id="line2d_19">
    <path d="M 57.67255 48.544669 
L 86.659563 74.047069 
L 115.646576 110.637469 
L 144.633589 136.139869 
L 173.620602 160.533469 
L 202.607615 198.232669 
L 231.594628 205.994269 
L 260.581641 243.693469 
L 289.568654 268.087069 
L 318.555667 305.786269 
L 347.54268 308.003869 
L 376.529693 308.003869 
L 405.516706 308.003869 
L 434.503719 308.003869 
L 463.490732 308.003869 
" clip-path="url(#pddf79ba2cd)" style="fill: none; stroke-dasharray: 5.55,2.4; stroke-dashoffset: 0; stroke: #000000; stroke-width: 1.5"/>
    <defs>
     <path id="m9629222e0c" d="M -3 3 
L 3 3 
L 3 -3 
L -3 -3 
z
" style="stroke: #000000; stroke-linejoin: miter"/>
    </defs>
    <g clip-path="url(#pddf79ba2cd)">
     <use xlink:href="#m9629222e0c" x="57.67255" y="48.544669" style="stroke: #000000; stroke-linejoin: miter"/>
     <use xlink:href="#m9629222e0c" x="86.659563" y="74.047069" style="stroke: #000000; stroke-linejoin: miter"/>
     <use xlink:href="#m9629222e0c" x="115.646576" y="110.637469" style="stroke: #000000; stroke-linejoin: miter"/>
     <use xlink:href="#m9629222e0c" x="144.633589" y="136.139869" style="stroke: #000000; stroke-linejoin: miter"/>
     <use xlink:href="#m9629222e0c" x="173.620602" y="160.533469" style="stroke: #000000; stroke-linejoin: miter"/>
     <use xlink:href="#m9629222e0c" x="202.607615" y="198.232669" style="stroke: #000000; stroke-linejoin: miter"/>
     <use xlink:href="#m9629222e0c" x="231.594628" y="205.994269" style="stroke: #000000; stroke-linejoin: miter"/>
     <use xlink:href="#m9629222e0c" x="260.581641" y="243.693469" style="stroke: #000000; stroke-linejoin: miter"/>
     <use xlink:href="#m9629222e0c" x="289.568654" y="268.087069" style="stroke: #000000; stroke-linejoin: miter"/>
     <use xlink:href="#m9629222e0c" x="318.555667" y="305.786269" style="stroke: #000000; stroke-linejoin: miter"/>
     <use xlink:href="#m9629222e0c" x="347.54268" y="308.003869" style="stroke: #000000; stroke-linejoin: miter"/>
     <use xlink:href="#m9629222e0c" x="376.529693" y="308.003869" style="stroke: #000000; stroke-linejoin: miter"/>
     <use xlink:href="#m9629222e0c" x="405.516706" y="308.003869" style="stroke: #000000; stroke-linejoin: miter"/>
     <use xlink:href="#m9629222e0c" x="434.503719" y="308.003869" style="stroke: #000000; stroke-linejoin: miter"/>
     <use xlink:href="#m9629222e0c" x="463.490732" y="308.003869" style="stroke: #000000; stroke-linejoin: miter"/>
    </g>
   </g>
   <g id="line2d_20">
    <path d="M 57.67255 50.762269 
L 86.659563 88.461469 
L 115.646576 96.223069 
L 144.633589 133.922269 
L 173.620602 171.621469 
L 202.607615 179.383069 
L 231.594628 217.082269 
L 260.581641 241.475869 
L 289.568654 279.175069 
L 318.555667 303.568669 
L 347.54268 322.418269 
L 376.529693 322.418269 
L 405.516706 322.418269 
L 434.503719 322.418269 
L 463.490732 322.418269 
" clip-path="url(#pddf79ba2cd)" style="fill: none; stroke-dasharray: 5.55,2.4; stroke-dashoffset: 0; stroke: #000000; stroke-width: 1.5"/>
    <defs>
     <path id="m7aad83d486" d="M 0 -3 
L -2.85317 -0.927051 
L -1.763356 2.427051 
L 1.763356 2.427051 
L 2.85317 -0.927051 
z
" style="stroke: #000000; stroke-linejoin: miter"/>
    </defs>
    <g clip-path="url(#pddf79ba2cd)">
     <use xlink:href="#m7aad83d486" x="57.67255" y="50.762269" style="stroke: #000000; stroke-linejoin: miter"/>
     <use xlink:href="#m7aad83d486" x="86.659563" y="88.461469" style="stroke: #000000; stroke-linejoin: miter"/>
     <use xlink:href="#m7aad83d486" x="115.646576" y="96.223069" style="stroke: #000000; stroke-linejoin: miter"/>
     <use xlink:href="#m7aad83d486" x="144.633589" y="133.922269" style="stroke: #000000; stroke-linejoin: miter"/>
     <use xlink:href="#m7aad83d486" x="173.620602" y="171.621469" style="stroke: #000000; stroke-linejoin: miter"/>
     <use xlink:href="#m7aad83d486" x="202.607615" y="179.383069" style="stroke: #000000; stroke-linejoin: miter"/>
     <use xlink:href="#m7aad83d486" x="231.594628" y="217.082269" style="stroke: #000000; stroke-linejoin: miter"/>
     <use xlink:href="#m7aad83d486" x="260.581641" y="241.475869" style="stroke: #000000; stroke-linejoin: miter"/>
     <use xlink:href="#m7aad83d486" x="289.568654" y="279.175069" style="stroke: #000000; stroke-linejoin: miter"/>
     <use xlink:href="#m7aad83d486" x="318.555667" y="303.568669" style="stroke: #000000; stroke-linejoin: miter"/>
     <use xlink:href="#m7aad83d486" x="347.54268" y="322.418269" style="stroke: #000000; stroke-linejoin: miter"/>
     <use xlink:href="#m7aad83d486" x="376.529693" y="322.418269" style="stroke: #000000; stroke-linejoin: miter"/>
     <use xlink:href="#m7aad83d486" x="405.516706" y="322.418269" style="stroke: #000000; stroke-linejoin: miter"/>
     <use xlink:href="#m7aad83d486" x="434.503719" y="322.418269" style="stroke: #000000; stroke-linejoin: miter"/>
     <use xlink:href="#m7aad83d486" x="463.490732" y="322.418269" style="stroke: #000000; stroke-linejoin: miter"/>
    </g>
   </g>
   <g id="line2d_21">
    <path d="M 57.67255 67.394269 
L 86.659563 91.787869 
L 115.646576 116.181469 
L 144.633589 141.683869 
L 173.620602 166.077469 
L 202.607615 190.471069 
L 231.594628 228.170269 
L 260.581641 252.563869 
L 289.568654 276.957469 
L 318.555667 301.351069 
L 347.54268 305.786269 
L 376.529693 305.786269 
L 405.516706 305.786269 
L 434.503719 305.786269 
L 463.490732 305.786269 
" clip-path="url(#pddf79ba2cd)" style="fill: none; stroke-dasharray: 5.55,2.4; stroke-dashoffset: 0; stroke: #000000; stroke-width: 1.5"/>
    <defs>
     <path id="m8b7ff71717" d="M 0 -3 
L -0.673542 -0.927051 
L -2.85317 -0.927051 
L -1.089814 0.354102 
L -1.763356 2.427051 
L -0 1.145898 
L 1.763356 2.427051 
L 1.089814 0.354102 
L 2.85317 -0.927051 
L 0.673542 -0.927051 
z
" style="stroke: #000000; stroke-linejoin: bevel"/>
    </defs>
    <g clip-path="url(#pddf79ba2cd)">
     <use xlink:href="#m8b7ff71717" x="57.67255" y="67.394269" style="stroke: #000000; stroke-linejoin: bevel"/>
     <use xlink:href="#m8b7ff71717" x="86.659563" y="91.787869" style="stroke: #000000; stroke-linejoin: bevel"/>
     <use xlink:href="#m8b7ff71717" x="115.646576" y="116.181469" style="stroke: #000000; stroke-linejoin: bevel"/>
     <use xlink:href="#m8b7ff71717" x="144.633589" y="141.683869" style="stroke: #000000; stroke-linejoin: bevel"/>
     <use xlink:href="#m8b7ff71717" x="173.620602" y="166.077469" style="stroke: #000000; stroke-linejoin: bevel"/>
     <use xlink:href="#m8b7ff71717" x="202.607615" y="190.471069" style="stroke: #000000; stroke-linejoin: bevel"/>
     <use xlink:href="#m8b7ff71717" x="231.594628" y="228.170269" style="stroke: #000000; stroke-linejoin: bevel"/>
     <use xlink:href="#m8b7ff71717" x="260.581641" y="252.563869" style="stroke: #000000; stroke-linejoin: bevel"/>
     <use xlink:href="#m8b7ff71717" x="289.568654" y="276.957469" style="stroke: #000000; stroke-linejoin: bevel"/>
     <use xlink:href="#m8b7ff71717" x="318.555667" y="301.351069" style="stroke: #000000; stroke-linejoin: bevel"/>
     <use xlink:href="#m8b7ff71717" x="347.54268" y="305.786269" style="stroke: #000000; stroke-linejoin: bevel"/>
     <use xlink:href="#m8b7ff71717" x="376.529693" y="305.786269" style="stroke: #000000; stroke-linejoin: bevel"/>
     <use xlink:href="#m8b7ff71717" x="405.516706" y="305.786269" style="stroke: #000000; stroke-linejoin: bevel"/>
     <use xlink:href="#m8b7ff71717" x="434.503719" y="305.786269" style="stroke: #000000; stroke-linejoin: bevel"/>
     <use xlink:href="#m8b7ff71717" x="463.490732" y="305.786269" style="stroke: #000000; stroke-linejoin: bevel"/>
    </g>
   </g>
   <g id="line2d_22">
    <path d="M 57.67255 66.285469 
L 86.659563 90.679069 
L 115.646576 128.378269 
L 144.633589 152.771869 
L 173.620602 177.165469 
L 202.607615 214.864669 
L 231.594628 239.258269 
L 260.581641 263.651869 
L 289.568654 288.045469 
L 318.555667 310.221469 
L 347.54268 312.439069 
L 376.529693 312.439069 
L 405.516706 312.439069 
L 434.503719 312.439069 
L 463.490732 312.439069 
" clip-path="url(#pddf79ba2cd)" style="fill: none; stroke-dasharray: 5.55,2.4; stroke-dashoffset: 0; stroke: #000000; stroke-width: 1.5"/>
    <defs>
     <path id="m3f6d671f19" d="M 0 -3 
L -2.598076 -1.5 
L -2.598076 1.5 
L -0 3 
L 2.598076 1.5 
L 2.598076 -1.5 
z
" style="stroke: #000000; stroke-linejoin: miter"/>
    </defs>
    <g clip-path="url(#pddf79ba2cd)">
     <use xlink:href="#m3f6d671f19" x="57.67255" y="66.285469" style="stroke: #000000; stroke-linejoin: miter"/>
     <use xlink:href="#m3f6d671f19" x="86.659563" y="90.679069" style="stroke: #000000; stroke-linejoin: miter"/>
     <use xlink:href="#m3f6d671f19" x="115.646576" y="128.378269" style="stroke: #000000; stroke-linejoin: miter"/>
     <use xlink:href="#m3f6d671f19" x="144.633589" y="152.771869" style="stroke: #000000; stroke-linejoin: miter"/>
     <use xlink:href="#m3f6d671f19" x="173.620602" y="177.165469" style="stroke: #000000; stroke-linejoin: miter"/>
     <use xlink:href="#m3f6d671f19" x="202.607615" y="214.864669" style="stroke: #000000; stroke-linejoin: miter"/>
     <use xlink:href="#m3f6d671f19" x="231.594628" y="239.258269" style="stroke: #000000; stroke-linejoin: miter"/>
     <use xlink:href="#m3f6d671f19" x="260.581641" y="263.651869" style="stroke: #000000; stroke-linejoin: miter"/>
     <use xlink:href="#m3f6d671f19" x="289.568654" y="288.045469" style="stroke: #000000; stroke-linejoin: miter"/>
     <use xlink:href="#m3f6d671f19" x="318.555667" y="310.221469" style="stroke: #000000; stroke-linejoin: miter"/>
     <use xlink:href="#m3f6d671f19" x="347.54268" y="312.439069" style="stroke: #000000; stroke-linejoin: miter"/>
     <use xlink:href="#m3f6d671f19" x="376.529693" y="312.439069" style="stroke: #000000; stroke-linejoin: miter"/>
     <use xlink:href="#m3f6d671f19" x="405.516706" y="312.439069" style="stroke: #000000; stroke-linejoin: miter"/>
     <use xlink:href="#m3f6d671f19" x="434.503719" y="312.439069" style="stroke: #000000; stroke-linejoin: miter"/>
     <use xlink:href="#m3f6d671f19" x="463.490732" y="312.439069" style="stroke: #000000; stroke-linejoin: miter"/>
    </g>
   </g>
   <g id="line2d_23">
    <path d="M 57.67255 20.824669 
L 86.659563 29.695069 
L 115.646576 37.456669 
L 144.633589 45.218269 
L 173.620602 52.979869 
L 202.607615 60.741469 
L 231.594628 69.611869 
L 260.581641 77.373469 
L 289.568654 85.135069 
L 318.555667 92.896669 
L 347.54268 94.005469 
L 376.529693 94.005469 
L 405.516706 94.005469 
L 434.503719 94.005469 
L 463.490732 94.005469 
" clip-path="url(#pddf79ba2cd)" style="fill: none; stroke-dasharray: 5.55,2.4; stroke-dashoffset: 0; stroke: #000000; stroke-width: 1.5"/>
    <defs>
     <path id="m4b72d03eb6" d="M -3 0 
L 3 0 
M 0 3 
L 0 -3 
" style="stroke: #000000"/>
    </defs>
    <g clip-path="url(#pddf79ba2cd)">
     <use xlink:href="#m4b72d03eb6" x="57.67255" y="20.824669" style="stroke: #000000"/>
     <use xlink:href="#m4b72d03eb6" x="86.659563" y="29.695069" style="stroke: #000000"/>
     <use xlink:href="#m4b72d03eb6" x="115.646576" y="37.456669" style="stroke: #000000"/>
     <use xlink:href="#m4b72d03eb6" x="144.633589" y="45.218269" style="stroke: #000000"/>
     <use xlink:href="#m4b72d03eb6" x="173.620602" y="52.979869" style="stroke: #000000"/>
     <use xlink:href="#m4b72d03eb6" x="202.607615" y="60.741469" style="stroke: #000000"/>
     <use xlink:href="#m4b72d03eb6" x="231.594628" y="69.611869" style="stroke: #000000"/>
     <use xlink:href="#m4b72d03eb6" x="260.581641" y="77.373469" style="stroke: #000000"/>
     <use xlink:href="#m4b72d03eb6" x="289.568654" y="85.135069" style="stroke: #000000"/>
     <use xlink:href="#m4b72d03eb6" x="318.555667" y="92.896669" style="stroke: #000000"/>
     <use xlink:href="#m4b72d03eb6" x="347.54268" y="94.005469" style="stroke: #000000"/>
     <use xlink:href="#m4b72d03eb6" x="376.529693" y="94.005469" style="stroke: #000000"/>
     <use xlink:href="#m4b72d03eb6" x="405.516706" y="94.005469" style="stroke: #000000"/>
     <use xlink:href="#m4b72d03eb6" x="434.503719" y="94.005469" style="stroke: #000000"/>
     <use xlink:href="#m4b72d03eb6" x="463.490732" y="94.005469" style="stroke: #000000"/>
    </g>
   </g>
   <g id="line2d_24">
    <path d="M 57.67255 28.586269 
L 86.659563 36.347869 
L 115.646576 44.109469 
L 144.633589 51.871069 
L 173.620602 59.632669 
L 202.607615 68.503069 
L 231.594628 76.264669 
L 260.581641 84.026269 
L 289.568654 91.787869 
L 318.555667 99.549469 
L 347.54268 102.875869 
L 376.529693 102.875869 
L 405.516706 102.875869 
L 434.503719 102.875869 
L 463.490732 102.875869 
" clip-path="url(#pddf79ba2cd)" style="fill: none; stroke-dasharray: 5.55,2.4; stroke-dashoffset: 0; stroke: #000000; stroke-width: 1.5"/>
    <defs>
     <path id="mfb625cd227" d="M -3 3 
L 3 -3 
M -3 -3 
L 3 3 
" style="stroke: #000000"/>
    </defs>
    <g clip-path="url(#pddf79ba2cd)">
     <use xlink:href="#mfb625cd227" x="57.67255" y="28.586269" style="stroke: #000000"/>
     <use xlink:href="#mfb625cd227" x="86.659563" y="36.347869" style="stroke: #000000"/>
     <use xlink:href="#mfb625cd227" x="115.646576" y="44.109469" style="stroke: #000000"/>
     <use xlink:href="#mfb625cd227" x="144.633589" y="51.871069" style="stroke: #000000"/>
     <use xlink:href="#mfb625cd227" x="173.620602" y="59.632669" style="stroke: #000000"/>
     <use xlink:href="#mfb625cd227" x="202.607615" y="68.503069" style="stroke: #000000"/>
     <use xlink:href="#mfb625cd227" x="231.594628" y="76.264669" style="stroke: #000000"/>
     <use xlink:href="#mfb625cd227" x="260.581641" y="84.026269" style="stroke: #000000"/>
     <use xlink:href="#mfb625cd227" x="289.568654" y="91.787869" style="stroke: #000000"/>
     <use xlink:href="#mfb625cd227" x="318.555667" y="99.549469" style="stroke: #000000"/>
     <use xlink:href="#mfb625cd227" x="347.54268" y="102.875869" style="stroke: #000000"/>
     <use xlink:href="#mfb625cd227" x="376.529693" y="102.875869" style="stroke: #000000"/>
     <use xlink:href="#mfb625cd227" x="405.516706" y="102.875869" style="stroke: #000000"/>
     <use xlink:href="#mfb625cd227" x="434.503719" y="102.875869" style="stroke: #000000"/>
     <use xlink:href="#mfb625cd227" x="463.490732" y="102.875869" style="stroke: #000000"/>
    </g>
   </g>
   <g id="line2d_25">
    <path d="M 57.67255 36.347869 
L 86.659563 45.218269 
L 115.646576 52.979869 
L 144.633589 60.741469 
L 173.620602 68.503069 
L 202.607615 76.264669 
L 231.594628 85.135069 
L 260.581641 92.896669 
L 289.568654 100.658269 
L 318.555667 108.419869 
L 347.54268 116.181469 
L 376.529693 116.181469 
L 405.516706 116.181469 
L 434.503719 116.181469 
L 463.490732 116.181469 
" clip-path="url(#pddf79ba2cd)" style="fill: none; stroke-dasharray: 5.55,2.4; stroke-dashoffset: 0; stroke: #000000; stroke-width: 1.5"/>
    <defs>
     <path id="me25bcbc0f3" d="M 0 4.242641 
L 4.242641 0 
L 0 -4.242641 
L -4.242641 0 
z
" style="stroke: #000000; stroke-linejoin: miter"/>
    </defs>
    <g clip-path="url(#pddf79ba2cd)">
     <use xlink:href="#me25bcbc0f3" x="57.67255" y="36.347869" style="stroke: #000000; stroke-linejoin: miter"/>
     <use xlink:href="#me25bcbc0f3" x="86.659563" y="45.218269" style="stroke: #000000; stroke-linejoin: miter"/>
     <use xlink:href="#me25bcbc0f3" x="115.646576" y="52.979869" style="stroke: #000000; stroke-linejoin: miter"/>
     <use xlink:href="#me25bcbc0f3" x="144.633589" y="60.741469" style="stroke: #000000; stroke-linejoin: miter"/>
     <use xlink:href="#me25bcbc0f3" x="173.620602" y="68.503069" style="stroke: #000000; stroke-linejoin: miter"/>
     <use xlink:href="#me25bcbc0f3" x="202.607615" y="76.264669" style="stroke: #000000; stroke-linejoin: miter"/>
     <use xlink:href="#me25bcbc0f3" x="231.594628" y="85.135069" style="stroke: #000000; stroke-linejoin: miter"/>
     <use xlink:href="#me25bcbc0f3" x="260.581641" y="92.896669" style="stroke: #000000; stroke-linejoin: miter"/>
     <use xlink:href="#me25bcbc0f3" x="289.568654" y="100.658269" style="stroke: #000000; stroke-linejoin: miter"/>
     <use xlink:href="#me25bcbc0f3" x="318.555667" y="108.419869" style="stroke: #000000; stroke-linejoin: miter"/>
     <use xlink:href="#me25bcbc0f3" x="347.54268" y="116.181469" style="stroke: #000000; stroke-linejoin: miter"/>
     <use xlink:href="#me25bcbc0f3" x="376.529693" y="116.181469" style="stroke: #000000; stroke-linejoin: miter"/>
     <use xlink:href="#me25bcbc0f3" x="405.516706" y="116.181469" style="stroke: #000000; stroke-linejoin: miter"/>
     <use xlink:href="#me25bcbc0f3" x="434.503719" y="116.181469" style="stroke: #000000; stroke-linejoin: miter"/>
     <use xlink:href="#me25bcbc0f3" x="463.490732" y="116.181469" style="stroke: #000000; stroke-linejoin: miter"/>
    </g>
   </g>
   <g id="line2d_26">
    <path d="M 57.67255 51.871069 
L 86.659563 60.741469 
L 115.646576 68.503069 
L 144.633589 76.264669 
L 173.620602 84.026269 
L 202.607615 91.787869 
L 231.594628 99.549469 
L 260.581641 108.419869 
L 289.568654 116.181469 
L 318.555667 123.943069 
L 347.54268 125.051869 
L 376.529693 125.051869 
L 405.516706 125.051869 
L 434.503719 125.051869 
L 463.490732 125.051869 
" clip-path="url(#pddf79ba2cd)" style="fill: none; stroke-dasharray: 5.55,2.4; stroke-dashoffset: 0; stroke: #000000; stroke-width: 1.5"/>
    <defs>
     <path id="m56018e40fb" d="M 0 4.242641 
L 2.545584 0 
L 0 -4.242641 
L -2.545584 0 
z
" style="stroke: #000000; stroke-linejoin: miter"/>
    </defs>
    <g clip-path="url(#pddf79ba2cd)">
     <use xlink:href="#m56018e40fb" x="57.67255" y="51.871069" style="stroke: #000000; stroke-linejoin: miter"/>
     <use xlink:href="#m56018e40fb" x="86.659563" y="60.741469" style="stroke: #000000; stroke-linejoin: miter"/>
     <use xlink:href="#m56018e40fb" x="115.646576" y="68.503069" style="stroke: #000000; stroke-linejoin: miter"/>
     <use xlink:href="#m56018e40fb" x="144.633589" y="76.264669" style="stroke: #000000; stroke-linejoin: miter"/>
     <use xlink:href="#m56018e40fb" x="173.620602" y="84.026269" style="stroke: #000000; stroke-linejoin: miter"/>
     <use xlink:href="#m56018e40fb" x="202.607615" y="91.787869" style="stroke: #000000; stroke-linejoin: miter"/>
     <use xlink:href="#m56018e40fb" x="231.594628" y="99.549469" style="stroke: #000000; stroke-linejoin: miter"/>
     <use xlink:href="#m56018e40fb" x="260.581641" y="108.419869" style="stroke: #000000; stroke-linejoin: miter"/>
     <use xlink:href="#m56018e40fb" x="289.568654" y="116.181469" style="stroke: #000000; stroke-linejoin: miter"/>
     <use xlink:href="#m56018e40fb" x="318.555667" y="123.943069" style="stroke: #000000; stroke-linejoin: miter"/>
     <use xlink:href="#m56018e40fb" x="347.54268" y="125.051869" style="stroke: #000000; stroke-linejoin: miter"/>
     <use xlink:href="#m56018e40fb" x="376.529693" y="125.051869" style="stroke: #000000; stroke-linejoin: miter"/>
     <use xlink:href="#m56018e40fb" x="405.516706" y="125.051869" style="stroke: #000000; stroke-linejoin: miter"/>
     <use xlink:href="#m56018e40fb" x="434.503719" y="125.051869" style="stroke: #000000; stroke-linejoin: miter"/>
     <use xlink:href="#m56018e40fb" x="463.490732" y="125.051869" style="stroke: #000000; stroke-linejoin: miter"/>
    </g>
   </g>
   <g id="line2d_27">
    <path d="M 57.67255 40.783069 
L 86.659563 48.544669 
L 115.646576 56.306269 
L 144.633589 65.176669 
L 173.620602 72.938269 
L 202.607615 80.699869 
L 231.594628 88.461469 
L 260.581641 96.223069 
L 289.568654 105.093469 
L 318.555667 111.746269 
L 347.54268 113.963869 
L 376.529693 113.963869 
L 405.516706 113.963869 
L 434.503719 113.963869 
L 463.490732 113.963869 
" clip-path="url(#pddf79ba2cd)" style="fill: none; stroke-dasharray: 5.55,2.4; stroke-dashoffset: 0; stroke: #000000; stroke-width: 1.5"/>
    <defs>
     <path id="m6495f6093b" d="M 0 0 
L 0 -3 
M 0 0 
L -2.4 1.5 
M 0 0 
L 2.4 1.5 
" style="stroke: #000000"/>
    </defs>
    <g clip-path="url(#pddf79ba2cd)">
     <use xlink:href="#m6495f6093b" x="57.67255" y="40.783069" style="stroke: #000000"/>
     <use xlink:href="#m6495f6093b" x="86.659563" y="48.544669" style="stroke: #000000"/>
     <use xlink:href="#m6495f6093b" x="115.646576" y="56.306269" style="stroke: #000000"/>
     <use xlink:href="#m6495f6093b" x="144.633589" y="65.176669" style="stroke: #000000"/>
     <use xlink:href="#m6495f6093b" x="173.620602" y="72.938269" style="stroke: #000000"/>
     <use xlink:href="#m6495f6093b" x="202.607615" y="80.699869" style="stroke: #000000"/>
     <use xlink:href="#m6495f6093b" x="231.594628" y="88.461469" style="stroke: #000000"/>
     <use xlink:href="#m6495f6093b" x="260.581641" y="96.223069" style="stroke: #000000"/>
     <use xlink:href="#m6495f6093b" x="289.568654" y="105.093469" style="stroke: #000000"/>
     <use xlink:href="#m6495f6093b" x="318.555667" y="111.746269" style="stroke: #000000"/>
     <use xlink:href="#m6495f6093b" x="347.54268" y="113.963869" style="stroke: #000000"/>
     <use xlink:href="#m6495f6093b" x="376.529693" y="113.963869" style="stroke: #000000"/>
     <use xlink:href="#m6495f6093b" x="405.516706" y="113.963869" style="stroke: #000000"/>
     <use xlink:href="#m6495f6093b" x="434.503719" y="113.963869" style="stroke: #000000"/>
     <use xlink:href="#m6495f6093b" x="463.490732" y="113.963869" style="stroke: #000000"/>
    </g>
   </g>
   <g id="patch_3">
    <path d="M 37.381641 398.925469 
L 37.381641 10.845469 
" style="fill: none; stroke: #000000; stroke-width: 0.8; stroke-linejoin: miter; stroke-linecap: square"/>
   </g>
   <g id="patch_4">
    <path d="M 483.781641 398.925469 
L 483.781641 10.845469 
" style="fill: none; stroke: #000000; stroke-width: 0.8; stroke-linejoin: miter; stroke-linecap: square"/>
   </g>
   <g id="patch_5">
    <path d="M 37.381641 398.925469 
L 483.781641 398.925469 
" style="fill: none; stroke: #000000; stroke-width: 0.8; stroke-linejoin: miter; stroke-linecap: square"/>
   </g>
   <g id="patch_6">
    <path d="M 37.381641 10.845469 
L 483.781641 10.845469 
" style="fill: none; stroke: #000000; stroke-width: 0.8; stroke-linejoin: miter; stroke-linecap: square"/>
   </g>
   <g id="legend_1">
    <g id="patch_7">
     <path d="M 44.731641 393.675469 
L 88.831641 393.675469 
Q 90.931641 393.675469 90.931641 391.575469 
L 90.931641 214.473281 
Q 90.931641 212.373281 88.831641 212.373281 
L 44.731641 212.373281 
Q 42.631641 212.373281 42.631641 214.473281 
L 42.631641 391.575469 
Q 42.631641 393.675469 44.731641 393.675469 
z
" style="fill: #ffffff; opacity: 0.8; stroke: #cccccc; stroke-linejoin: miter"/>
    </g>
    <g id="line2d_28">
     <path d="M 46.831641 220.248281 
L 57.331641 220.248281 
L 67.831641 220.248281 
" style="fill: none; stroke-dasharray: 5.55,2.4; stroke-dashoffset: 0; stroke: #000000; stroke-width: 1.5"/>
     <g>
      <use xlink:href="#mf03de9dc1e" x="57.331641" y="220.248281" style="stroke: #000000"/>
     </g>
    </g>
    <g id="text_18">
     <!-- 2 -->
     <g transform="translate(76.231641 223.923281)scale(0.105 -0.105)">
      <use xlink:href="#TimesNewRomanPSMT-32"/>
     </g>
    </g>
    <g id="line2d_29">
     <path d="M 46.831641 235.094297 
L 57.331641 235.094297 
L 67.831641 235.094297 
" style="fill: none; stroke-dasharray: 5.55,2.4; stroke-dashoffset: 0; stroke: #000000; stroke-width: 1.5"/>
     <g>
      <use xlink:href="#mf1259e1e82" x="57.331641" y="235.094297" style="stroke: #000000; stroke-linejoin: miter"/>
     </g>
    </g>
    <g id="text_19">
     <!-- 3 -->
     <g transform="translate(76.231641 238.769297)scale(0.105 -0.105)">
      <use xlink:href="#TimesNewRomanPSMT-33"/>
     </g>
    </g>
    <g id="line2d_30">
     <path d="M 46.831641 249.940312 
L 57.331641 249.940312 
L 67.831641 249.940312 
" style="fill: none; stroke-dasharray: 5.55,2.4; stroke-dashoffset: 0; stroke: #000000; stroke-width: 1.5"/>
     <g>
      <use xlink:href="#m57a98e92ad" x="57.331641" y="249.940312" style="stroke: #000000"/>
     </g>
    </g>
    <g id="text_20">
     <!-- 4 -->
     <g transform="translate(76.231641 253.615312)scale(0.105 -0.105)">
      <use xlink:href="#TimesNewRomanPSMT-34"/>
     </g>
    </g>
    <g id="line2d_31">
     <path d="M 46.831641 264.786328 
L 57.331641 264.786328 
L 67.831641 264.786328 
" style="fill: none; stroke-dasharray: 5.55,2.4; stroke-dashoffset: 0; stroke: #000000; stroke-width: 1.5"/>
     <g>
      <use xlink:href="#m9629222e0c" x="57.331641" y="264.786328" style="stroke: #000000; stroke-linejoin: miter"/>
     </g>
    </g>
    <g id="text_21">
     <!-- 5 -->
     <g transform="translate(76.231641 268.461328)scale(0.105 -0.105)">
      <use xlink:href="#TimesNewRomanPSMT-35"/>
     </g>
    </g>
    <g id="line2d_32">
     <path d="M 46.831641 279.632344 
L 57.331641 279.632344 
L 67.831641 279.632344 
" style="fill: none; stroke-dasharray: 5.55,2.4; stroke-dashoffset: 0; stroke: #000000; stroke-width: 1.5"/>
     <g>
      <use xlink:href="#m7aad83d486" x="57.331641" y="279.632344" style="stroke: #000000; stroke-linejoin: miter"/>
     </g>
    </g>
    <g id="text_22">
     <!-- 6 -->
     <g transform="translate(76.231641 283.307344)scale(0.105 -0.105)">
      <use xlink:href="#TimesNewRomanPSMT-36"/>
     </g>
    </g>
    <g id="line2d_33">
     <path d="M 46.831641 294.478359 
L 57.331641 294.478359 
L 67.831641 294.478359 
" style="fill: none; stroke-dasharray: 5.55,2.4; stroke-dashoffset: 0; stroke: #000000; stroke-width: 1.5"/>
     <g>
      <use xlink:href="#m8b7ff71717" x="57.331641" y="294.478359" style="stroke: #000000; stroke-linejoin: bevel"/>
     </g>
    </g>
    <g id="text_23">
     <!-- 7 -->
     <g transform="translate(76.231641 298.153359)scale(0.105 -0.105)">
      <defs>
       <path id="TimesNewRomanPSMT-37" d="M 644 4238 
L 2916 4238 
L 2916 4119 
L 1503 -88 
L 1153 -88 
L 2419 3728 
L 1253 3728 
Q 900 3728 750 3644 
Q 488 3500 328 3200 
L 238 3234 
L 644 4238 
z
" transform="scale(0.015625)"/>
      </defs>
      <use xlink:href="#TimesNewRomanPSMT-37"/>
     </g>
    </g>
    <g id="line2d_34">
     <path d="M 46.831641 309.324375 
L 57.331641 309.324375 
L 67.831641 309.324375 
" style="fill: none; stroke-dasharray: 5.55,2.4; stroke-dashoffset: 0; stroke: #000000; stroke-width: 1.5"/>
     <g>
      <use xlink:href="#m3f6d671f19" x="57.331641" y="309.324375" style="stroke: #000000; stroke-linejoin: miter"/>
     </g>
    </g>
    <g id="text_24">
     <!-- 8 -->
     <g transform="translate(76.231641 312.999375)scale(0.105 -0.105)">
      <use xlink:href="#TimesNewRomanPSMT-38"/>
     </g>
    </g>
    <g id="line2d_35">
     <path d="M 46.831641 324.170391 
L 57.331641 324.170391 
L 67.831641 324.170391 
" style="fill: none; stroke-dasharray: 5.55,2.4; stroke-dashoffset: 0; stroke: #000000; stroke-width: 1.5"/>
     <g>
      <use xlink:href="#m4b72d03eb6" x="57.331641" y="324.170391" style="stroke: #000000"/>
     </g>
    </g>
    <g id="text_25">
     <!-- 9 -->
     <g transform="translate(76.231641 327.845391)scale(0.105 -0.105)">
      <defs>
       <path id="TimesNewRomanPSMT-39" d="M 338 -88 
L 338 28 
Q 744 34 1094 217 
Q 1444 400 1770 856 
Q 2097 1313 2225 1859 
Q 1734 1544 1338 1544 
Q 891 1544 572 1889 
Q 253 2234 253 2806 
Q 253 3363 572 3797 
Q 956 4325 1575 4325 
Q 2097 4325 2469 3894 
Q 2925 3359 2925 2575 
Q 2925 1869 2578 1258 
Q 2231 647 1613 244 
Q 1109 -88 516 -88 
L 338 -88 
z
M 2275 2091 
Q 2331 2497 2331 2741 
Q 2331 3044 2228 3395 
Q 2125 3747 1936 3934 
Q 1747 4122 1506 4122 
Q 1228 4122 1018 3872 
Q 809 3622 809 3128 
Q 809 2469 1088 2097 
Q 1291 1828 1588 1828 
Q 1731 1828 1928 1897 
Q 2125 1966 2275 2091 
z
" transform="scale(0.015625)"/>
      </defs>
      <use xlink:href="#TimesNewRomanPSMT-39"/>
     </g>
    </g>
    <g id="line2d_36">
     <path d="M 46.831641 339.016406 
L 57.331641 339.016406 
L 67.831641 339.016406 
" style="fill: none; stroke-dasharray: 5.55,2.4; stroke-dashoffset: 0; stroke: #000000; stroke-width: 1.5"/>
     <g>
      <use xlink:href="#mfb625cd227" x="57.331641" y="339.016406" style="stroke: #000000"/>
     </g>
    </g>
    <g id="text_26">
     <!-- 10 -->
     <g transform="translate(76.231641 342.691406)scale(0.105 -0.105)">
      <use xlink:href="#TimesNewRomanPSMT-31"/>
      <use xlink:href="#TimesNewRomanPSMT-30" x="50"/>
     </g>
    </g>
    <g id="line2d_37">
     <path d="M 46.831641 353.862422 
L 57.331641 353.862422 
L 67.831641 353.862422 
" style="fill: none; stroke-dasharray: 5.55,2.4; stroke-dashoffset: 0; stroke: #000000; stroke-width: 1.5"/>
     <g>
      <use xlink:href="#me25bcbc0f3" x="57.331641" y="353.862422" style="stroke: #000000; stroke-linejoin: miter"/>
     </g>
    </g>
    <g id="text_27">
     <!-- 11 -->
     <g transform="translate(76.231641 357.537422)scale(0.105 -0.105)">
      <use xlink:href="#TimesNewRomanPSMT-31"/>
      <use xlink:href="#TimesNewRomanPSMT-31" x="46.25"/>
     </g>
    </g>
    <g id="line2d_38">
     <path d="M 46.831641 368.708438 
L 57.331641 368.708438 
L 67.831641 368.708438 
" style="fill: none; stroke-dasharray: 5.55,2.4; stroke-dashoffset: 0; stroke: #000000; stroke-width: 1.5"/>
     <g>
      <use xlink:href="#m56018e40fb" x="57.331641" y="368.708438" style="stroke: #000000; stroke-linejoin: miter"/>
     </g>
    </g>
    <g id="text_28">
     <!-- 12 -->
     <g transform="translate(76.231641 372.383438)scale(0.105 -0.105)">
      <use xlink:href="#TimesNewRomanPSMT-31"/>
      <use xlink:href="#TimesNewRomanPSMT-32" x="50"/>
     </g>
    </g>
    <g id="line2d_39">
     <path d="M 46.831641 383.554453 
L 57.331641 383.554453 
L 67.831641 383.554453 
" style="fill: none; stroke-dasharray: 5.55,2.4; stroke-dashoffset: 0; stroke: #000000; stroke-width: 1.5"/>
     <g>
      <use xlink:href="#m6495f6093b" x="57.331641" y="383.554453" style="stroke: #000000"/>
     </g>
    </g>
    <g id="text_29">
     <!-- 13 -->
     <g transform="translate(76.231641 387.229453)scale(0.105 -0.105)">
      <use xlink:href="#TimesNewRomanPSMT-31"/>
      <use xlink:href="#TimesNewRomanPSMT-33" x="50"/>
     </g>
    </g>
   </g>
  </g>
 </g>
 <defs>
  <clipPath id="pddf79ba2cd">
   <rect x="37.381641" y="10.845469" width="446.4" height="388.08"/>
  </clipPath>
 </defs>
</svg>
