<?xml version="1.0" encoding="utf-8" standalone="no"?>
<!DOCTYPE svg PUBLIC "-//W3C//DTD SVG 1.1//EN"
  "http://www.w3.org/Graphics/SVG/1.1/DTD/svg11.dtd">
<svg xmlns:xlink="http://www.w3.org/1999/xlink" width="371.52pt" height="280.512pt" viewBox="0 0 371.52 280.512" xmlns="http://www.w3.org/2000/svg" version="1.1">
 <metadata>
  <rdf:RDF xmlns:dc="http://purl.org/dc/elements/1.1/" xmlns:cc="http://creativecommons.org/ns#" xmlns:rdf="http://www.w3.org/1999/02/22-rdf-syntax-ns#">
   <cc:Work>
    <dc:type rdf:resource="http://purl.org/dc/dcmitype/StillImage"/>
    <dc:date>2022-11-16T16:17:30.281642</dc:date>
    <dc:format>image/svg+xml</dc:format>
    <dc:creator>
     <cc:Agent>
      <dc:title>Matplotlib v3.5.2, https://matplotlib.org/</dc:title>
     </cc:Agent>
    </dc:creator>
   </cc:Work>
  </rdf:RDF>
 </metadata>
 <defs>
  <style type="text/css">*{stroke-linejoin: round; stroke-linecap: butt}</style>
 </defs>
 <g id="figure_1">
  <g id="patch_1">
   <path d="M 0 280.512 
L 371.52 280.512 
L 371.52 0 
L 0 0 
z
" style="fill: #ffffff"/>
  </g>
  <g id="axes_1">
   <g id="patch_2">
    <path d="M 7.2 273.312 
L 364.32 273.312 
L 364.32 7.2 
L 7.2 7.2 
z
" style="fill: #ffffff"/>
   </g>
   <g id="patch_3">
    <path d="M 181.867862 184.644601 
Q 167.314361 213.563816 153.263452 241.484331 
" clip-path="url(#pe677e79e6e)" style="fill: none; stroke: #000000; stroke-linecap: round"/>
    <path d="M 156.848109 238.810339 
L 153.263452 241.484331 
L 153.275053 237.01221 
L 156.848109 238.810339 
z
" clip-path="url(#pe677e79e6e)" style="stroke: #000000; stroke-linecap: round"/>
   </g>
   <g id="patch_4">
    <path d="M 152.759576 111.33551 
Q 167.313077 140.254725 181.363986 168.17524 
" clip-path="url(#pe677e79e6e)" style="fill: none; stroke: #000000; stroke-linecap: round"/>
    <path d="M 181.352385 163.703119 
L 181.363986 168.17524 
L 177.779329 165.501249 
L 181.352385 163.703119 
z
" clip-path="url(#pe677e79e6e)" style="stroke: #000000; stroke-linecap: round"/>
   </g>
   <g id="patch_5">
    <path d="M 218.760424 111.33551 
Q 204.206923 140.254725 190.156014 168.17524 
" clip-path="url(#pe677e79e6e)" style="fill: none; stroke: #000000; stroke-linecap: round"/>
    <path d="M 193.740671 165.501249 
L 190.156014 168.17524 
L 190.167615 163.703119 
L 193.740671 165.501249 
z
" clip-path="url(#pe677e79e6e)" style="stroke: #000000; stroke-linecap: round"/>
   </g>
   <g id="patch_6">
    <path d="M 83.742519 103.601455 
Q 111.974314 103.601455 139.088076 103.601455 
" clip-path="url(#pe677e79e6e)" style="fill: none; stroke: #000000; stroke-linecap: round"/>
    <path d="M 135.088076 101.601455 
L 139.088076 103.601455 
L 135.088076 105.601455 
L 135.088076 101.601455 
z
" clip-path="url(#pe677e79e6e)" style="stroke: #000000; stroke-linecap: round"/>
   </g>
   <g id="patch_7">
    <path d="M 287.777481 103.601455 
Q 259.545686 103.601455 232.431924 103.601455 
" clip-path="url(#pe677e79e6e)" style="fill: none; stroke: #000000; stroke-linecap: round"/>
    <path d="M 236.431924 105.601455 
L 232.431924 103.601455 
L 236.431924 101.601455 
L 236.431924 105.601455 
z
" clip-path="url(#pe677e79e6e)" style="stroke: #000000; stroke-linecap: round"/>
   </g>
   <g id="patch_8">
    <path d="M 115.867014 38.026419 
Q 130.420515 66.945634 144.471424 94.866149 
" clip-path="url(#pe677e79e6e)" style="fill: none; stroke: #000000; stroke-linecap: round"/>
    <path d="M 144.459823 90.394029 
L 144.471424 94.866149 
L 140.886767 92.192158 
L 144.459823 90.394029 
z
" clip-path="url(#pe677e79e6e)" style="stroke: #000000; stroke-linecap: round"/>
   </g>
   <g id="patch_9">
    <path d="M 181.867862 38.026419 
Q 167.314361 66.945634 153.263452 94.866149 
" clip-path="url(#pe677e79e6e)" style="fill: none; stroke: #000000; stroke-linecap: round"/>
    <path d="M 156.848109 92.192158 
L 153.263452 94.866149 
L 153.275053 90.394029 
L 156.848109 92.192158 
z
" clip-path="url(#pe677e79e6e)" style="stroke: #000000; stroke-linecap: round"/>
   </g>
   <g id="patch_10">
    <path d="M 255.652986 38.026419 
Q 241.099485 66.945634 227.048576 94.866149 
" clip-path="url(#pe677e79e6e)" style="fill: none; stroke: #000000; stroke-linecap: round"/>
    <path d="M 230.633233 92.192158 
L 227.048576 94.866149 
L 227.060177 90.394029 
L 230.633233 92.192158 
z
" clip-path="url(#pe677e79e6e)" style="stroke: #000000; stroke-linecap: round"/>
   </g>
   <g id="patch_11">
    <path d="M 46.849957 30.292364 
Q 75.081752 30.292364 102.195514 30.292364 
" clip-path="url(#pe677e79e6e)" style="fill: none; stroke: #000000; stroke-linecap: round"/>
    <path d="M 98.195514 28.292364 
L 102.195514 30.292364 
L 98.195514 32.292364 
L 98.195514 28.292364 
z
" clip-path="url(#pe677e79e6e)" style="stroke: #000000; stroke-linecap: round"/>
   </g>
   <g id="patch_12">
    <path d="M 324.670043 30.292364 
Q 296.438248 30.292364 269.324486 30.292364 
" clip-path="url(#pe677e79e6e)" style="fill: none; stroke: #000000; stroke-linecap: round"/>
    <path d="M 273.324486 32.292364 
L 269.324486 30.292364 
L 273.324486 28.292364 
L 273.324486 32.292364 
z
" clip-path="url(#pe677e79e6e)" style="stroke: #000000; stroke-linecap: round"/>
   </g>
   <g id="matplotlib.axis_1">
    <g id="xtick_1"/>
    <g id="xtick_2"/>
    <g id="xtick_3"/>
    <g id="xtick_4"/>
   </g>
   <g id="matplotlib.axis_2">
    <g id="ytick_1"/>
    <g id="ytick_2"/>
    <g id="ytick_3"/>
    <g id="ytick_4"/>
    <g id="ytick_5"/>
    <g id="ytick_6"/>
    <g id="ytick_7"/>
   </g>
   <g id="PathCollection_1">
    <defs>
     <path id="m260286b923" d="M 0 8.660254 
C 2.296726 8.660254 4.499694 7.747755 6.123724 6.123724 
C 7.747755 4.499694 8.660254 2.296726 8.660254 0 
C 8.660254 -2.296726 7.747755 -4.499694 6.123724 -6.123724 
C 4.499694 -7.747755 2.296726 -8.660254 0 -8.660254 
C -2.296726 -8.660254 -4.499694 -7.747755 -6.123724 -6.123724 
C -7.747755 -4.499694 -8.660254 -2.296726 -8.660254 0 
C -8.660254 2.296726 -7.747755 4.499694 -6.123724 6.123724 
C -4.499694 7.747755 -2.296726 8.660254 0 8.660254 
z
" style="stroke: #1f78b4"/>
    </defs>
    <g clip-path="url(#pe677e79e6e)">
     <use xlink:href="#m260286b923" x="148.867438" y="250.219636" style="fill: #1f78b4; stroke: #1f78b4"/>
     <use xlink:href="#m260286b923" x="222.652562" y="250.219636" style="fill: #1f78b4; stroke: #1f78b4"/>
     <use xlink:href="#m260286b923" x="185.76" y="176.910545" style="fill: #1f78b4; stroke: #1f78b4"/>
     <use xlink:href="#m260286b923" x="111.974876" y="176.910545" style="fill: #1f78b4; stroke: #1f78b4"/>
     <use xlink:href="#m260286b923" x="259.545124" y="176.910545" style="fill: #1f78b4; stroke: #1f78b4"/>
     <use xlink:href="#m260286b923" x="148.867438" y="103.601455" style="fill: #1f78b4; stroke: #1f78b4"/>
     <use xlink:href="#m260286b923" x="222.652562" y="103.601455" style="fill: #1f78b4; stroke: #1f78b4"/>
     <use xlink:href="#m260286b923" x="75.082314" y="103.601455" style="fill: #1f78b4; stroke: #1f78b4"/>
     <use xlink:href="#m260286b923" x="296.437686" y="103.601455" style="fill: #1f78b4; stroke: #1f78b4"/>
     <use xlink:href="#m260286b923" x="111.974876" y="30.292364" style="fill: #1f78b4; stroke: #1f78b4"/>
     <use xlink:href="#m260286b923" x="185.76" y="30.292364" style="fill: #1f78b4; stroke: #1f78b4"/>
     <use xlink:href="#m260286b923" x="259.545124" y="30.292364" style="fill: #1f78b4; stroke: #1f78b4"/>
     <use xlink:href="#m260286b923" x="38.189752" y="30.292364" style="fill: #1f78b4; stroke: #1f78b4"/>
     <use xlink:href="#m260286b923" x="333.330248" y="30.292364" style="fill: #1f78b4; stroke: #1f78b4"/>
    </g>
   </g>
   <g id="patch_13">
    <path d="M 7.2 273.312 
L 7.2 7.2 
" style="fill: none; stroke: #000000; stroke-width: 0.8; stroke-linejoin: miter; stroke-linecap: square"/>
   </g>
   <g id="patch_14">
    <path d="M 364.32 273.312 
L 364.32 7.2 
" style="fill: none; stroke: #000000; stroke-width: 0.8; stroke-linejoin: miter; stroke-linecap: square"/>
   </g>
   <g id="patch_15">
    <path d="M 7.2 273.312 
L 364.32 273.312 
" style="fill: none; stroke: #000000; stroke-width: 0.8; stroke-linejoin: miter; stroke-linecap: square"/>
   </g>
   <g id="patch_16">
    <path d="M 7.2 7.2 
L 364.32 7.2 
" style="fill: none; stroke: #000000; stroke-width: 0.8; stroke-linejoin: miter; stroke-linecap: square"/>
   </g>
   <g id="text_1">
    <g clip-path="url(#pe677e79e6e)">
     <!-- 0 -->
     <g transform="translate(145.049938 253.530886)scale(0.12 -0.12)">
      <defs>
       <path id="DejaVuSans-30" d="M 2034 4250 
Q 1547 4250 1301 3770 
Q 1056 3291 1056 2328 
Q 1056 1369 1301 889 
Q 1547 409 2034 409 
Q 2525 409 2770 889 
Q 3016 1369 3016 2328 
Q 3016 3291 2770 3770 
Q 2525 4250 2034 4250 
z
M 2034 4750 
Q 2819 4750 3233 4129 
Q 3647 3509 3647 2328 
Q 3647 1150 3233 529 
Q 2819 -91 2034 -91 
Q 1250 -91 836 529 
Q 422 1150 422 2328 
Q 422 3509 836 4129 
Q 1250 4750 2034 4750 
z
" transform="scale(0.015625)"/>
      </defs>
      <use xlink:href="#DejaVuSans-30"/>
     </g>
    </g>
   </g>
   <g id="text_2">
    <g clip-path="url(#pe677e79e6e)">
     <!-- 1 -->
     <g transform="translate(218.835062 253.530886)scale(0.12 -0.12)">
      <defs>
       <path id="DejaVuSans-31" d="M 794 531 
L 1825 531 
L 1825 4091 
L 703 3866 
L 703 4441 
L 1819 4666 
L 2450 4666 
L 2450 531 
L 3481 531 
L 3481 0 
L 794 0 
L 794 531 
z
" transform="scale(0.015625)"/>
      </defs>
      <use xlink:href="#DejaVuSans-31"/>
     </g>
    </g>
   </g>
   <g id="text_3">
    <g clip-path="url(#pe677e79e6e)">
     <!-- 2 -->
     <g transform="translate(181.9425 180.221795)scale(0.12 -0.12)">
      <defs>
       <path id="DejaVuSans-32" d="M 1228 531 
L 3431 531 
L 3431 0 
L 469 0 
L 469 531 
Q 828 903 1448 1529 
Q 2069 2156 2228 2338 
Q 2531 2678 2651 2914 
Q 2772 3150 2772 3378 
Q 2772 3750 2511 3984 
Q 2250 4219 1831 4219 
Q 1534 4219 1204 4116 
Q 875 4013 500 3803 
L 500 4441 
Q 881 4594 1212 4672 
Q 1544 4750 1819 4750 
Q 2544 4750 2975 4387 
Q 3406 4025 3406 3419 
Q 3406 3131 3298 2873 
Q 3191 2616 2906 2266 
Q 2828 2175 2409 1742 
Q 1991 1309 1228 531 
z
" transform="scale(0.015625)"/>
      </defs>
      <use xlink:href="#DejaVuSans-32"/>
     </g>
    </g>
   </g>
   <g id="text_4">
    <g clip-path="url(#pe677e79e6e)">
     <!-- 3 -->
     <g transform="translate(108.157376 180.221795)scale(0.12 -0.12)">
      <defs>
       <path id="DejaVuSans-33" d="M 2597 2516 
Q 3050 2419 3304 2112 
Q 3559 1806 3559 1356 
Q 3559 666 3084 287 
Q 2609 -91 1734 -91 
Q 1441 -91 1130 -33 
Q 819 25 488 141 
L 488 750 
Q 750 597 1062 519 
Q 1375 441 1716 441 
Q 2309 441 2620 675 
Q 2931 909 2931 1356 
Q 2931 1769 2642 2001 
Q 2353 2234 1838 2234 
L 1294 2234 
L 1294 2753 
L 1863 2753 
Q 2328 2753 2575 2939 
Q 2822 3125 2822 3475 
Q 2822 3834 2567 4026 
Q 2313 4219 1838 4219 
Q 1578 4219 1281 4162 
Q 984 4106 628 3988 
L 628 4550 
Q 988 4650 1302 4700 
Q 1616 4750 1894 4750 
Q 2613 4750 3031 4423 
Q 3450 4097 3450 3541 
Q 3450 3153 3228 2886 
Q 3006 2619 2597 2516 
z
" transform="scale(0.015625)"/>
      </defs>
      <use xlink:href="#DejaVuSans-33"/>
     </g>
    </g>
   </g>
   <g id="text_5">
    <g clip-path="url(#pe677e79e6e)">
     <!-- 4 -->
     <g transform="translate(255.727624 180.221795)scale(0.12 -0.12)">
      <defs>
       <path id="DejaVuSans-34" d="M 2419 4116 
L 825 1625 
L 2419 1625 
L 2419 4116 
z
M 2253 4666 
L 3047 4666 
L 3047 1625 
L 3713 1625 
L 3713 1100 
L 3047 1100 
L 3047 0 
L 2419 0 
L 2419 1100 
L 313 1100 
L 313 1709 
L 2253 4666 
z
" transform="scale(0.015625)"/>
      </defs>
      <use xlink:href="#DejaVuSans-34"/>
     </g>
    </g>
   </g>
   <g id="text_6">
    <g clip-path="url(#pe677e79e6e)">
     <!-- 5 -->
     <g transform="translate(145.049938 106.912705)scale(0.12 -0.12)">
      <defs>
       <path id="DejaVuSans-35" d="M 691 4666 
L 3169 4666 
L 3169 4134 
L 1269 4134 
L 1269 2991 
Q 1406 3038 1543 3061 
Q 1681 3084 1819 3084 
Q 2600 3084 3056 2656 
Q 3513 2228 3513 1497 
Q 3513 744 3044 326 
Q 2575 -91 1722 -91 
Q 1428 -91 1123 -41 
Q 819 9 494 109 
L 494 744 
Q 775 591 1075 516 
Q 1375 441 1709 441 
Q 2250 441 2565 725 
Q 2881 1009 2881 1497 
Q 2881 1984 2565 2268 
Q 2250 2553 1709 2553 
Q 1456 2553 1204 2497 
Q 953 2441 691 2322 
L 691 4666 
z
" transform="scale(0.015625)"/>
      </defs>
      <use xlink:href="#DejaVuSans-35"/>
     </g>
    </g>
   </g>
   <g id="text_7">
    <g clip-path="url(#pe677e79e6e)">
     <!-- 6 -->
     <g transform="translate(218.835062 106.912705)scale(0.12 -0.12)">
      <defs>
       <path id="DejaVuSans-36" d="M 2113 2584 
Q 1688 2584 1439 2293 
Q 1191 2003 1191 1497 
Q 1191 994 1439 701 
Q 1688 409 2113 409 
Q 2538 409 2786 701 
Q 3034 994 3034 1497 
Q 3034 2003 2786 2293 
Q 2538 2584 2113 2584 
z
M 3366 4563 
L 3366 3988 
Q 3128 4100 2886 4159 
Q 2644 4219 2406 4219 
Q 1781 4219 1451 3797 
Q 1122 3375 1075 2522 
Q 1259 2794 1537 2939 
Q 1816 3084 2150 3084 
Q 2853 3084 3261 2657 
Q 3669 2231 3669 1497 
Q 3669 778 3244 343 
Q 2819 -91 2113 -91 
Q 1303 -91 875 529 
Q 447 1150 447 2328 
Q 447 3434 972 4092 
Q 1497 4750 2381 4750 
Q 2619 4750 2861 4703 
Q 3103 4656 3366 4563 
z
" transform="scale(0.015625)"/>
      </defs>
      <use xlink:href="#DejaVuSans-36"/>
     </g>
    </g>
   </g>
   <g id="text_8">
    <g clip-path="url(#pe677e79e6e)">
     <!-- 7 -->
     <g transform="translate(71.264814 106.912705)scale(0.12 -0.12)">
      <defs>
       <path id="DejaVuSans-37" d="M 525 4666 
L 3525 4666 
L 3525 4397 
L 1831 0 
L 1172 0 
L 2766 4134 
L 525 4134 
L 525 4666 
z
" transform="scale(0.015625)"/>
      </defs>
      <use xlink:href="#DejaVuSans-37"/>
     </g>
    </g>
   </g>
   <g id="text_9">
    <g clip-path="url(#pe677e79e6e)">
     <!-- 8 -->
     <g transform="translate(292.620186 106.912705)scale(0.12 -0.12)">
      <defs>
       <path id="DejaVuSans-38" d="M 2034 2216 
Q 1584 2216 1326 1975 
Q 1069 1734 1069 1313 
Q 1069 891 1326 650 
Q 1584 409 2034 409 
Q 2484 409 2743 651 
Q 3003 894 3003 1313 
Q 3003 1734 2745 1975 
Q 2488 2216 2034 2216 
z
M 1403 2484 
Q 997 2584 770 2862 
Q 544 3141 544 3541 
Q 544 4100 942 4425 
Q 1341 4750 2034 4750 
Q 2731 4750 3128 4425 
Q 3525 4100 3525 3541 
Q 3525 3141 3298 2862 
Q 3072 2584 2669 2484 
Q 3125 2378 3379 2068 
Q 3634 1759 3634 1313 
Q 3634 634 3220 271 
Q 2806 -91 2034 -91 
Q 1263 -91 848 271 
Q 434 634 434 1313 
Q 434 1759 690 2068 
Q 947 2378 1403 2484 
z
M 1172 3481 
Q 1172 3119 1398 2916 
Q 1625 2713 2034 2713 
Q 2441 2713 2670 2916 
Q 2900 3119 2900 3481 
Q 2900 3844 2670 4047 
Q 2441 4250 2034 4250 
Q 1625 4250 1398 4047 
Q 1172 3844 1172 3481 
z
" transform="scale(0.015625)"/>
      </defs>
      <use xlink:href="#DejaVuSans-38"/>
     </g>
    </g>
   </g>
   <g id="text_10">
    <g clip-path="url(#pe677e79e6e)">
     <!-- 9 -->
     <g transform="translate(108.157376 33.603614)scale(0.12 -0.12)">
      <defs>
       <path id="DejaVuSans-39" d="M 703 97 
L 703 672 
Q 941 559 1184 500 
Q 1428 441 1663 441 
Q 2288 441 2617 861 
Q 2947 1281 2994 2138 
Q 2813 1869 2534 1725 
Q 2256 1581 1919 1581 
Q 1219 1581 811 2004 
Q 403 2428 403 3163 
Q 403 3881 828 4315 
Q 1253 4750 1959 4750 
Q 2769 4750 3195 4129 
Q 3622 3509 3622 2328 
Q 3622 1225 3098 567 
Q 2575 -91 1691 -91 
Q 1453 -91 1209 -44 
Q 966 3 703 97 
z
M 1959 2075 
Q 2384 2075 2632 2365 
Q 2881 2656 2881 3163 
Q 2881 3666 2632 3958 
Q 2384 4250 1959 4250 
Q 1534 4250 1286 3958 
Q 1038 3666 1038 3163 
Q 1038 2656 1286 2365 
Q 1534 2075 1959 2075 
z
" transform="scale(0.015625)"/>
      </defs>
      <use xlink:href="#DejaVuSans-39"/>
     </g>
    </g>
   </g>
   <g id="text_11">
    <g clip-path="url(#pe677e79e6e)">
     <!-- 10 -->
     <g transform="translate(178.125 33.603614)scale(0.12 -0.12)">
      <use xlink:href="#DejaVuSans-31"/>
      <use xlink:href="#DejaVuSans-30" x="63.623047"/>
     </g>
    </g>
   </g>
   <g id="text_12">
    <g clip-path="url(#pe677e79e6e)">
     <!-- 11 -->
     <g transform="translate(251.910124 33.603614)scale(0.12 -0.12)">
      <use xlink:href="#DejaVuSans-31"/>
      <use xlink:href="#DejaVuSans-31" x="63.623047"/>
     </g>
    </g>
   </g>
   <g id="text_13">
    <g clip-path="url(#pe677e79e6e)">
     <!-- 12 -->
     <g transform="translate(30.554752 33.603614)scale(0.12 -0.12)">
      <use xlink:href="#DejaVuSans-31"/>
      <use xlink:href="#DejaVuSans-32" x="63.623047"/>
     </g>
    </g>
   </g>
   <g id="text_14">
    <g clip-path="url(#pe677e79e6e)">
     <!-- 13 -->
     <g transform="translate(325.695248 33.603614)scale(0.12 -0.12)">
      <use xlink:href="#DejaVuSans-31"/>
      <use xlink:href="#DejaVuSans-33" x="63.623047"/>
     </g>
    </g>
   </g>
   <g id="text_15">
    <!-- 2.83 -->
    <g transform="translate(193.138512 176.910545)scale(0.1 -0.1)">
     <defs>
      <path id="DejaVuSans-2e" d="M 684 794 
L 1344 794 
L 1344 0 
L 684 0 
L 684 794 
z
" transform="scale(0.015625)"/>
     </defs>
     <use xlink:href="#DejaVuSans-32"/>
     <use xlink:href="#DejaVuSans-2e" x="63.623047"/>
     <use xlink:href="#DejaVuSans-38" x="95.410156"/>
     <use xlink:href="#DejaVuSans-33" x="159.033203"/>
    </g>
   </g>
   <g id="text_16">
    <!-- -0.00 -->
    <g transform="translate(119.353388 176.910545)scale(0.1 -0.1)">
     <defs>
      <path id="DejaVuSans-2d" d="M 313 2009 
L 1997 2009 
L 1997 1497 
L 313 1497 
L 313 2009 
z
" transform="scale(0.015625)"/>
     </defs>
     <use xlink:href="#DejaVuSans-2d"/>
     <use xlink:href="#DejaVuSans-30" x="36.083984"/>
     <use xlink:href="#DejaVuSans-2e" x="99.707031"/>
     <use xlink:href="#DejaVuSans-30" x="131.494141"/>
     <use xlink:href="#DejaVuSans-30" x="195.117188"/>
    </g>
   </g>
   <g id="text_17">
    <!-- 0.00 -->
    <g transform="translate(266.923636 176.910545)scale(0.1 -0.1)">
     <use xlink:href="#DejaVuSans-30"/>
     <use xlink:href="#DejaVuSans-2e" x="63.623047"/>
     <use xlink:href="#DejaVuSans-30" x="95.410156"/>
     <use xlink:href="#DejaVuSans-30" x="159.033203"/>
    </g>
   </g>
   <g id="text_18">
    <!-- 2.84 -->
    <g transform="translate(156.24595 103.601455)scale(0.1 -0.1)">
     <use xlink:href="#DejaVuSans-32"/>
     <use xlink:href="#DejaVuSans-2e" x="63.623047"/>
     <use xlink:href="#DejaVuSans-38" x="95.410156"/>
     <use xlink:href="#DejaVuSans-34" x="159.033203"/>
    </g>
   </g>
   <g id="text_19">
    <!-- 2.93 -->
    <g transform="translate(230.031074 103.601455)scale(0.1 -0.1)">
     <use xlink:href="#DejaVuSans-32"/>
     <use xlink:href="#DejaVuSans-2e" x="63.623047"/>
     <use xlink:href="#DejaVuSans-39" x="95.410156"/>
     <use xlink:href="#DejaVuSans-33" x="159.033203"/>
    </g>
   </g>
   <g id="text_20">
    <!-- 0.54 -->
    <g transform="translate(82.460826 103.601455)scale(0.1 -0.1)">
     <use xlink:href="#DejaVuSans-30"/>
     <use xlink:href="#DejaVuSans-2e" x="63.623047"/>
     <use xlink:href="#DejaVuSans-35" x="95.410156"/>
     <use xlink:href="#DejaVuSans-34" x="159.033203"/>
    </g>
   </g>
   <g id="text_21">
    <!-- 2.25 -->
    <g transform="translate(303.816198 103.601455)scale(0.1 -0.1)">
     <use xlink:href="#DejaVuSans-32"/>
     <use xlink:href="#DejaVuSans-2e" x="63.623047"/>
     <use xlink:href="#DejaVuSans-32" x="95.410156"/>
     <use xlink:href="#DejaVuSans-35" x="159.033203"/>
    </g>
   </g>
   <g id="text_22">
    <!-- 3.11 -->
    <g transform="translate(119.353388 30.292364)scale(0.1 -0.1)">
     <use xlink:href="#DejaVuSans-33"/>
     <use xlink:href="#DejaVuSans-2e" x="63.623047"/>
     <use xlink:href="#DejaVuSans-31" x="95.410156"/>
     <use xlink:href="#DejaVuSans-31" x="159.033203"/>
    </g>
   </g>
   <g id="text_23">
    <!-- 3.26 -->
    <g transform="translate(193.138512 30.292364)scale(0.1 -0.1)">
     <use xlink:href="#DejaVuSans-33"/>
     <use xlink:href="#DejaVuSans-2e" x="63.623047"/>
     <use xlink:href="#DejaVuSans-32" x="95.410156"/>
     <use xlink:href="#DejaVuSans-36" x="159.033203"/>
    </g>
   </g>
   <g id="text_24">
    <!-- 3.11 -->
    <g transform="translate(266.923636 30.292364)scale(0.1 -0.1)">
     <use xlink:href="#DejaVuSans-33"/>
     <use xlink:href="#DejaVuSans-2e" x="63.623047"/>
     <use xlink:href="#DejaVuSans-31" x="95.410156"/>
     <use xlink:href="#DejaVuSans-31" x="159.033203"/>
    </g>
   </g>
   <g id="text_25">
    <!-- 3.26 -->
    <g transform="translate(45.568264 30.292364)scale(0.1 -0.1)">
     <use xlink:href="#DejaVuSans-33"/>
     <use xlink:href="#DejaVuSans-2e" x="63.623047"/>
     <use xlink:href="#DejaVuSans-32" x="95.410156"/>
     <use xlink:href="#DejaVuSans-36" x="159.033203"/>
    </g>
   </g>
   <g id="text_26">
    <!-- 3.26 -->
    <g transform="translate(340.70876 30.292364)scale(0.1 -0.1)">
     <use xlink:href="#DejaVuSans-33"/>
     <use xlink:href="#DejaVuSans-2e" x="63.623047"/>
     <use xlink:href="#DejaVuSans-32" x="95.410156"/>
     <use xlink:href="#DejaVuSans-36" x="159.033203"/>
    </g>
   </g>
   <g id="text_27">
    <!-- round: 34 -->
    <g transform="translate(38.189752 250.219636)scale(0.1 -0.1)">
     <defs>
      <path id="DejaVuSans-72" d="M 2631 2963 
Q 2534 3019 2420 3045 
Q 2306 3072 2169 3072 
Q 1681 3072 1420 2755 
Q 1159 2438 1159 1844 
L 1159 0 
L 581 0 
L 581 3500 
L 1159 3500 
L 1159 2956 
Q 1341 3275 1631 3429 
Q 1922 3584 2338 3584 
Q 2397 3584 2469 3576 
Q 2541 3569 2628 3553 
L 2631 2963 
z
" transform="scale(0.015625)"/>
      <path id="DejaVuSans-6f" d="M 1959 3097 
Q 1497 3097 1228 2736 
Q 959 2375 959 1747 
Q 959 1119 1226 758 
Q 1494 397 1959 397 
Q 2419 397 2687 759 
Q 2956 1122 2956 1747 
Q 2956 2369 2687 2733 
Q 2419 3097 1959 3097 
z
M 1959 3584 
Q 2709 3584 3137 3096 
Q 3566 2609 3566 1747 
Q 3566 888 3137 398 
Q 2709 -91 1959 -91 
Q 1206 -91 779 398 
Q 353 888 353 1747 
Q 353 2609 779 3096 
Q 1206 3584 1959 3584 
z
" transform="scale(0.015625)"/>
      <path id="DejaVuSans-75" d="M 544 1381 
L 544 3500 
L 1119 3500 
L 1119 1403 
Q 1119 906 1312 657 
Q 1506 409 1894 409 
Q 2359 409 2629 706 
Q 2900 1003 2900 1516 
L 2900 3500 
L 3475 3500 
L 3475 0 
L 2900 0 
L 2900 538 
Q 2691 219 2414 64 
Q 2138 -91 1772 -91 
Q 1169 -91 856 284 
Q 544 659 544 1381 
z
M 1991 3584 
L 1991 3584 
z
" transform="scale(0.015625)"/>
      <path id="DejaVuSans-6e" d="M 3513 2113 
L 3513 0 
L 2938 0 
L 2938 2094 
Q 2938 2591 2744 2837 
Q 2550 3084 2163 3084 
Q 1697 3084 1428 2787 
Q 1159 2491 1159 1978 
L 1159 0 
L 581 0 
L 581 3500 
L 1159 3500 
L 1159 2956 
Q 1366 3272 1645 3428 
Q 1925 3584 2291 3584 
Q 2894 3584 3203 3211 
Q 3513 2838 3513 2113 
z
" transform="scale(0.015625)"/>
      <path id="DejaVuSans-64" d="M 2906 2969 
L 2906 4863 
L 3481 4863 
L 3481 0 
L 2906 0 
L 2906 525 
Q 2725 213 2448 61 
Q 2172 -91 1784 -91 
Q 1150 -91 751 415 
Q 353 922 353 1747 
Q 353 2572 751 3078 
Q 1150 3584 1784 3584 
Q 2172 3584 2448 3432 
Q 2725 3281 2906 2969 
z
M 947 1747 
Q 947 1113 1208 752 
Q 1469 391 1925 391 
Q 2381 391 2643 752 
Q 2906 1113 2906 1747 
Q 2906 2381 2643 2742 
Q 2381 3103 1925 3103 
Q 1469 3103 1208 2742 
Q 947 2381 947 1747 
z
" transform="scale(0.015625)"/>
      <path id="DejaVuSans-3a" d="M 750 794 
L 1409 794 
L 1409 0 
L 750 0 
L 750 794 
z
M 750 3309 
L 1409 3309 
L 1409 2516 
L 750 2516 
L 750 3309 
z
" transform="scale(0.015625)"/>
      <path id="DejaVuSans-20" transform="scale(0.015625)"/>
     </defs>
     <use xlink:href="#DejaVuSans-72"/>
     <use xlink:href="#DejaVuSans-6f" x="38.863281"/>
     <use xlink:href="#DejaVuSans-75" x="100.044922"/>
     <use xlink:href="#DejaVuSans-6e" x="163.423828"/>
     <use xlink:href="#DejaVuSans-64" x="226.802734"/>
     <use xlink:href="#DejaVuSans-3a" x="290.279297"/>
     <use xlink:href="#DejaVuSans-20" x="323.970703"/>
     <use xlink:href="#DejaVuSans-33" x="355.757812"/>
     <use xlink:href="#DejaVuSans-34" x="419.380859"/>
    </g>
   </g>
  </g>
 </g>
 <defs>
  <clipPath id="pe677e79e6e">
   <rect x="7.2" y="7.2" width="357.12" height="266.112"/>
  </clipPath>
 </defs>
</svg>
