<?xml version="1.0" encoding="utf-8" standalone="no"?>
<!DOCTYPE svg PUBLIC "-//W3C//DTD SVG 1.1//EN"
  "http://www.w3.org/Graphics/SVG/1.1/DTD/svg11.dtd">
<svg xmlns:xlink="http://www.w3.org/1999/xlink" width="405.190226pt" height="307.105594pt" viewBox="0 0 405.190226 307.105594" xmlns="http://www.w3.org/2000/svg" version="1.1">
 <metadata>
  <rdf:RDF xmlns:dc="http://purl.org/dc/elements/1.1/" xmlns:cc="http://creativecommons.org/ns#" xmlns:rdf="http://www.w3.org/1999/02/22-rdf-syntax-ns#">
   <cc:Work>
    <dc:type rdf:resource="http://purl.org/dc/dcmitype/StillImage"/>
    <dc:date>2023-03-23T15:59:34.414561</dc:date>
    <dc:format>image/svg+xml</dc:format>
    <dc:creator>
     <cc:Agent>
      <dc:title>Matplotlib v3.5.2, https://matplotlib.org/</dc:title>
     </cc:Agent>
    </dc:creator>
   </cc:Work>
  </rdf:RDF>
 </metadata>
 <defs>
  <style type="text/css">*{stroke-linejoin: round; stroke-linecap: butt}</style>
 </defs>
 <g id="figure_1">
  <g id="patch_1">
   <path d="M 0 307.105594 
L 405.190226 307.105594 
L 405.190226 0 
L 0 0 
z
" style="fill: #ffffff"/>
  </g>
  <g id="axes_1">
   <g id="patch_2">
    <path d="M 40.657969 273.312 
L 397.777969 273.312 
L 397.777969 7.2 
L 40.657969 7.2 
z
" style="fill: #ffffff"/>
   </g>
   <g id="matplotlib.axis_1">
    <g id="xtick_1">
     <g id="line2d_1">
      <defs>
       <path id="mb2ea2ae2d3" d="M 0 0 
L 0 -3.5 
" style="stroke: #000000; stroke-width: 0.8"/>
      </defs>
      <g>
       <use xlink:href="#mb2ea2ae2d3" x="56.890696" y="273.312" style="stroke: #000000; stroke-width: 0.8"/>
      </g>
     </g>
     <g id="text_1">
      <!-- 0 -->
      <g transform="translate(54.265696 284.102937)scale(0.105 -0.105)">
       <defs>
        <path id="TimesNewRomanPSMT-30" d="M 231 2094 
Q 231 2819 450 3342 
Q 669 3866 1031 4122 
Q 1313 4325 1613 4325 
Q 2100 4325 2488 3828 
Q 2972 3213 2972 2159 
Q 2972 1422 2759 906 
Q 2547 391 2217 158 
Q 1888 -75 1581 -75 
Q 975 -75 572 641 
Q 231 1244 231 2094 
z
M 844 2016 
Q 844 1141 1059 588 
Q 1238 122 1591 122 
Q 1759 122 1940 273 
Q 2122 425 2216 781 
Q 2359 1319 2359 2297 
Q 2359 3022 2209 3506 
Q 2097 3866 1919 4016 
Q 1791 4119 1609 4119 
Q 1397 4119 1231 3928 
Q 1006 3669 925 3112 
Q 844 2556 844 2016 
z
" transform="scale(0.015625)"/>
       </defs>
       <use xlink:href="#TimesNewRomanPSMT-30"/>
      </g>
     </g>
    </g>
    <g id="xtick_2">
     <g id="line2d_2">
      <g>
       <use xlink:href="#mb2ea2ae2d3" x="112.865618" y="273.312" style="stroke: #000000; stroke-width: 0.8"/>
      </g>
     </g>
     <g id="text_2">
      <!-- 5 -->
      <g transform="translate(110.240618 284.102937)scale(0.105 -0.105)">
       <defs>
        <path id="TimesNewRomanPSMT-35" d="M 2778 4238 
L 2534 3706 
L 1259 3706 
L 981 3138 
Q 1809 3016 2294 2522 
Q 2709 2097 2709 1522 
Q 2709 1188 2573 903 
Q 2438 619 2231 419 
Q 2025 219 1772 97 
Q 1413 -75 1034 -75 
Q 653 -75 479 54 
Q 306 184 306 341 
Q 306 428 378 495 
Q 450 563 559 563 
Q 641 563 702 538 
Q 763 513 909 409 
Q 1144 247 1384 247 
Q 1750 247 2026 523 
Q 2303 800 2303 1197 
Q 2303 1581 2056 1914 
Q 1809 2247 1375 2428 
Q 1034 2569 447 2591 
L 1259 4238 
L 2778 4238 
z
" transform="scale(0.015625)"/>
       </defs>
       <use xlink:href="#TimesNewRomanPSMT-35"/>
      </g>
     </g>
    </g>
    <g id="xtick_3">
     <g id="line2d_3">
      <g>
       <use xlink:href="#mb2ea2ae2d3" x="168.840539" y="273.312" style="stroke: #000000; stroke-width: 0.8"/>
      </g>
     </g>
     <g id="text_3">
      <!-- 10 -->
      <g transform="translate(163.590539 284.102937)scale(0.105 -0.105)">
       <defs>
        <path id="TimesNewRomanPSMT-31" d="M 750 3822 
L 1781 4325 
L 1884 4325 
L 1884 747 
Q 1884 391 1914 303 
Q 1944 216 2037 169 
Q 2131 122 2419 116 
L 2419 0 
L 825 0 
L 825 116 
Q 1125 122 1212 167 
Q 1300 213 1334 289 
Q 1369 366 1369 747 
L 1369 3034 
Q 1369 3497 1338 3628 
Q 1316 3728 1258 3775 
Q 1200 3822 1119 3822 
Q 1003 3822 797 3725 
L 750 3822 
z
" transform="scale(0.015625)"/>
       </defs>
       <use xlink:href="#TimesNewRomanPSMT-31"/>
       <use xlink:href="#TimesNewRomanPSMT-30" x="50"/>
      </g>
     </g>
    </g>
    <g id="xtick_4">
     <g id="line2d_4">
      <g>
       <use xlink:href="#mb2ea2ae2d3" x="224.815461" y="273.312" style="stroke: #000000; stroke-width: 0.8"/>
      </g>
     </g>
     <g id="text_4">
      <!-- 15 -->
      <g transform="translate(219.565461 284.102937)scale(0.105 -0.105)">
       <use xlink:href="#TimesNewRomanPSMT-31"/>
       <use xlink:href="#TimesNewRomanPSMT-35" x="50"/>
      </g>
     </g>
    </g>
    <g id="xtick_5">
     <g id="line2d_5">
      <g>
       <use xlink:href="#mb2ea2ae2d3" x="280.790383" y="273.312" style="stroke: #000000; stroke-width: 0.8"/>
      </g>
     </g>
     <g id="text_5">
      <!-- 20 -->
      <g transform="translate(275.540383 284.102937)scale(0.105 -0.105)">
       <defs>
        <path id="TimesNewRomanPSMT-32" d="M 2934 816 
L 2638 0 
L 138 0 
L 138 116 
Q 1241 1122 1691 1759 
Q 2141 2397 2141 2925 
Q 2141 3328 1894 3587 
Q 1647 3847 1303 3847 
Q 991 3847 742 3664 
Q 494 3481 375 3128 
L 259 3128 
Q 338 3706 661 4015 
Q 984 4325 1469 4325 
Q 1984 4325 2329 3994 
Q 2675 3663 2675 3213 
Q 2675 2891 2525 2569 
Q 2294 2063 1775 1497 
Q 997 647 803 472 
L 1909 472 
Q 2247 472 2383 497 
Q 2519 522 2628 598 
Q 2738 675 2819 816 
L 2934 816 
z
" transform="scale(0.015625)"/>
       </defs>
       <use xlink:href="#TimesNewRomanPSMT-32"/>
       <use xlink:href="#TimesNewRomanPSMT-30" x="50"/>
      </g>
     </g>
    </g>
    <g id="xtick_6">
     <g id="line2d_6">
      <g>
       <use xlink:href="#mb2ea2ae2d3" x="336.765304" y="273.312" style="stroke: #000000; stroke-width: 0.8"/>
      </g>
     </g>
     <g id="text_6">
      <!-- 25 -->
      <g transform="translate(331.515304 284.102937)scale(0.105 -0.105)">
       <use xlink:href="#TimesNewRomanPSMT-32"/>
       <use xlink:href="#TimesNewRomanPSMT-35" x="50"/>
      </g>
     </g>
    </g>
    <g id="xtick_7">
     <g id="line2d_7">
      <g>
       <use xlink:href="#mb2ea2ae2d3" x="392.740226" y="273.312" style="stroke: #000000; stroke-width: 0.8"/>
      </g>
     </g>
     <g id="text_7">
      <!-- 30 -->
      <g transform="translate(387.490226 284.102937)scale(0.105 -0.105)">
       <defs>
        <path id="TimesNewRomanPSMT-33" d="M 325 3431 
Q 506 3859 782 4092 
Q 1059 4325 1472 4325 
Q 1981 4325 2253 3994 
Q 2459 3747 2459 3466 
Q 2459 3003 1878 2509 
Q 2269 2356 2469 2072 
Q 2669 1788 2669 1403 
Q 2669 853 2319 450 
Q 1863 -75 997 -75 
Q 569 -75 414 31 
Q 259 138 259 259 
Q 259 350 332 419 
Q 406 488 509 488 
Q 588 488 669 463 
Q 722 447 909 348 
Q 1097 250 1169 231 
Q 1284 197 1416 197 
Q 1734 197 1970 444 
Q 2206 691 2206 1028 
Q 2206 1275 2097 1509 
Q 2016 1684 1919 1775 
Q 1784 1900 1550 2001 
Q 1316 2103 1072 2103 
L 972 2103 
L 972 2197 
Q 1219 2228 1467 2375 
Q 1716 2522 1828 2728 
Q 1941 2934 1941 3181 
Q 1941 3503 1739 3701 
Q 1538 3900 1238 3900 
Q 753 3900 428 3381 
L 325 3431 
z
" transform="scale(0.015625)"/>
       </defs>
       <use xlink:href="#TimesNewRomanPSMT-33"/>
       <use xlink:href="#TimesNewRomanPSMT-30" x="50"/>
      </g>
     </g>
    </g>
    <g id="text_8">
     <!-- Upload Cycle -->
     <g transform="translate(190.203516 297.639891)scale(0.105 -0.105)">
      <defs>
       <path id="TimesNewRomanPSMT-55" d="M 3053 4122 
L 3053 4238 
L 4553 4238 
L 4553 4122 
L 4394 4122 
Q 4144 4122 4009 3913 
Q 3944 3816 3944 3463 
L 3944 1744 
Q 3944 1106 3817 754 
Q 3691 403 3320 151 
Q 2950 -100 2313 -100 
Q 1619 -100 1259 140 
Q 900 381 750 788 
Q 650 1066 650 1831 
L 650 3488 
Q 650 3878 542 4000 
Q 434 4122 194 4122 
L 34 4122 
L 34 4238 
L 1866 4238 
L 1866 4122 
L 1703 4122 
Q 1441 4122 1328 3956 
Q 1250 3844 1250 3488 
L 1250 1641 
Q 1250 1394 1295 1075 
Q 1341 756 1459 578 
Q 1578 400 1801 284 
Q 2025 169 2350 169 
Q 2766 169 3094 350 
Q 3422 531 3542 814 
Q 3663 1097 3663 1772 
L 3663 3488 
Q 3663 3884 3575 3984 
Q 3453 4122 3213 4122 
L 3053 4122 
z
" transform="scale(0.015625)"/>
       <path id="TimesNewRomanPSMT-70" d="M -6 2578 
L 875 2934 
L 994 2934 
L 994 2266 
Q 1216 2644 1439 2795 
Q 1663 2947 1909 2947 
Q 2341 2947 2628 2609 
Q 2981 2197 2981 1534 
Q 2981 794 2556 309 
Q 2206 -88 1675 -88 
Q 1444 -88 1275 -22 
Q 1150 25 994 166 
L 994 -706 
Q 994 -1000 1030 -1079 
Q 1066 -1159 1155 -1206 
Q 1244 -1253 1478 -1253 
L 1478 -1369 
L -22 -1369 
L -22 -1253 
L 56 -1253 
Q 228 -1256 350 -1188 
Q 409 -1153 442 -1076 
Q 475 -1000 475 -688 
L 475 2019 
Q 475 2297 450 2372 
Q 425 2447 370 2484 
Q 316 2522 222 2522 
Q 147 2522 31 2478 
L -6 2578 
z
M 994 2081 
L 994 1013 
Q 994 666 1022 556 
Q 1066 375 1236 237 
Q 1406 100 1666 100 
Q 1978 100 2172 344 
Q 2425 663 2425 1241 
Q 2425 1897 2138 2250 
Q 1938 2494 1663 2494 
Q 1513 2494 1366 2419 
Q 1253 2363 994 2081 
z
" transform="scale(0.015625)"/>
       <path id="TimesNewRomanPSMT-6c" d="M 1184 4444 
L 1184 647 
Q 1184 378 1223 290 
Q 1263 203 1344 158 
Q 1425 113 1647 113 
L 1647 0 
L 244 0 
L 244 113 
Q 441 113 512 153 
Q 584 194 625 287 
Q 666 381 666 647 
L 666 3247 
Q 666 3731 644 3842 
Q 622 3953 573 3993 
Q 525 4034 450 4034 
Q 369 4034 244 3984 
L 191 4094 
L 1044 4444 
L 1184 4444 
z
" transform="scale(0.015625)"/>
       <path id="TimesNewRomanPSMT-6f" d="M 1600 2947 
Q 2250 2947 2644 2453 
Q 2978 2031 2978 1484 
Q 2978 1100 2793 706 
Q 2609 313 2286 112 
Q 1963 -88 1566 -88 
Q 919 -88 538 428 
Q 216 863 216 1403 
Q 216 1797 411 2186 
Q 606 2575 925 2761 
Q 1244 2947 1600 2947 
z
M 1503 2744 
Q 1338 2744 1170 2645 
Q 1003 2547 900 2300 
Q 797 2053 797 1666 
Q 797 1041 1045 587 
Q 1294 134 1700 134 
Q 2003 134 2200 384 
Q 2397 634 2397 1244 
Q 2397 2006 2069 2444 
Q 1847 2744 1503 2744 
z
" transform="scale(0.015625)"/>
       <path id="TimesNewRomanPSMT-61" d="M 1822 413 
Q 1381 72 1269 19 
Q 1100 -59 909 -59 
Q 613 -59 420 144 
Q 228 347 228 678 
Q 228 888 322 1041 
Q 450 1253 767 1440 
Q 1084 1628 1822 1897 
L 1822 2009 
Q 1822 2438 1686 2597 
Q 1550 2756 1291 2756 
Q 1094 2756 978 2650 
Q 859 2544 859 2406 
L 866 2225 
Q 866 2081 792 2003 
Q 719 1925 600 1925 
Q 484 1925 411 2006 
Q 338 2088 338 2228 
Q 338 2497 613 2722 
Q 888 2947 1384 2947 
Q 1766 2947 2009 2819 
Q 2194 2722 2281 2516 
Q 2338 2381 2338 1966 
L 2338 994 
Q 2338 584 2353 492 
Q 2369 400 2405 369 
Q 2441 338 2488 338 
Q 2538 338 2575 359 
Q 2641 400 2828 588 
L 2828 413 
Q 2478 -56 2159 -56 
Q 2006 -56 1915 50 
Q 1825 156 1822 413 
z
M 1822 616 
L 1822 1706 
Q 1350 1519 1213 1441 
Q 966 1303 859 1153 
Q 753 1003 753 825 
Q 753 600 887 451 
Q 1022 303 1197 303 
Q 1434 303 1822 616 
z
" transform="scale(0.015625)"/>
       <path id="TimesNewRomanPSMT-64" d="M 2222 322 
Q 2013 103 1813 7 
Q 1613 -88 1381 -88 
Q 913 -88 563 304 
Q 213 697 213 1313 
Q 213 1928 600 2439 
Q 988 2950 1597 2950 
Q 1975 2950 2222 2709 
L 2222 3238 
Q 2222 3728 2198 3840 
Q 2175 3953 2125 3993 
Q 2075 4034 2000 4034 
Q 1919 4034 1784 3984 
L 1744 4094 
L 2597 4444 
L 2738 4444 
L 2738 1134 
Q 2738 631 2761 520 
Q 2784 409 2836 365 
Q 2888 322 2956 322 
Q 3041 322 3181 375 
L 3216 266 
L 2366 -88 
L 2222 -88 
L 2222 322 
z
M 2222 541 
L 2222 2016 
Q 2203 2228 2109 2403 
Q 2016 2578 1861 2667 
Q 1706 2756 1559 2756 
Q 1284 2756 1069 2509 
Q 784 2184 784 1559 
Q 784 928 1059 592 
Q 1334 256 1672 256 
Q 1956 256 2222 541 
z
" transform="scale(0.015625)"/>
       <path id="TimesNewRomanPSMT-20" transform="scale(0.015625)"/>
       <path id="TimesNewRomanPSMT-43" d="M 3853 4334 
L 3950 2894 
L 3853 2894 
Q 3659 3541 3300 3825 
Q 2941 4109 2438 4109 
Q 2016 4109 1675 3895 
Q 1334 3681 1139 3212 
Q 944 2744 944 2047 
Q 944 1472 1128 1050 
Q 1313 628 1683 403 
Q 2053 178 2528 178 
Q 2941 178 3256 354 
Q 3572 531 3950 1056 
L 4047 994 
Q 3728 428 3303 165 
Q 2878 -97 2294 -97 
Q 1241 -97 663 684 
Q 231 1266 231 2053 
Q 231 2688 515 3219 
Q 800 3750 1298 4042 
Q 1797 4334 2388 4334 
Q 2847 4334 3294 4109 
Q 3425 4041 3481 4041 
Q 3566 4041 3628 4100 
Q 3709 4184 3744 4334 
L 3853 4334 
z
" transform="scale(0.015625)"/>
       <path id="TimesNewRomanPSMT-79" d="M 38 2863 
L 1372 2863 
L 1372 2747 
L 1306 2747 
Q 1166 2747 1095 2686 
Q 1025 2625 1025 2534 
Q 1025 2413 1128 2197 
L 1825 753 
L 2466 2334 
Q 2519 2463 2519 2588 
Q 2519 2644 2497 2672 
Q 2472 2706 2419 2726 
Q 2366 2747 2231 2747 
L 2231 2863 
L 3163 2863 
L 3163 2747 
Q 3047 2734 2984 2696 
Q 2922 2659 2847 2556 
Q 2819 2513 2741 2316 
L 1575 -541 
Q 1406 -956 1132 -1168 
Q 859 -1381 606 -1381 
Q 422 -1381 303 -1275 
Q 184 -1169 184 -1031 
Q 184 -900 270 -820 
Q 356 -741 506 -741 
Q 609 -741 788 -809 
Q 913 -856 944 -856 
Q 1038 -856 1148 -759 
Q 1259 -663 1372 -384 
L 1575 113 
L 547 2272 
Q 500 2369 397 2513 
Q 319 2622 269 2659 
Q 197 2709 38 2747 
L 38 2863 
z
" transform="scale(0.015625)"/>
       <path id="TimesNewRomanPSMT-63" d="M 2631 1088 
Q 2516 522 2178 217 
Q 1841 -88 1431 -88 
Q 944 -88 581 321 
Q 219 731 219 1428 
Q 219 2103 620 2525 
Q 1022 2947 1584 2947 
Q 2006 2947 2278 2723 
Q 2550 2500 2550 2259 
Q 2550 2141 2473 2067 
Q 2397 1994 2259 1994 
Q 2075 1994 1981 2113 
Q 1928 2178 1911 2362 
Q 1894 2547 1784 2644 
Q 1675 2738 1481 2738 
Q 1169 2738 978 2506 
Q 725 2200 725 1697 
Q 725 1184 976 792 
Q 1228 400 1656 400 
Q 1963 400 2206 609 
Q 2378 753 2541 1131 
L 2631 1088 
z
" transform="scale(0.015625)"/>
       <path id="TimesNewRomanPSMT-65" d="M 681 1784 
Q 678 1147 991 784 
Q 1303 422 1725 422 
Q 2006 422 2214 576 
Q 2422 731 2563 1106 
L 2659 1044 
Q 2594 616 2278 264 
Q 1963 -88 1488 -88 
Q 972 -88 605 314 
Q 238 716 238 1394 
Q 238 2128 614 2539 
Q 991 2950 1559 2950 
Q 2041 2950 2350 2633 
Q 2659 2316 2659 1784 
L 681 1784 
z
M 681 1966 
L 2006 1966 
Q 1991 2241 1941 2353 
Q 1863 2528 1708 2628 
Q 1553 2728 1384 2728 
Q 1125 2728 920 2526 
Q 716 2325 681 1966 
z
" transform="scale(0.015625)"/>
      </defs>
      <use xlink:href="#TimesNewRomanPSMT-55"/>
      <use xlink:href="#TimesNewRomanPSMT-70" x="72.216797"/>
      <use xlink:href="#TimesNewRomanPSMT-6c" x="122.216797"/>
      <use xlink:href="#TimesNewRomanPSMT-6f" x="150"/>
      <use xlink:href="#TimesNewRomanPSMT-61" x="200"/>
      <use xlink:href="#TimesNewRomanPSMT-64" x="244.384766"/>
      <use xlink:href="#TimesNewRomanPSMT-20" x="294.384766"/>
      <use xlink:href="#TimesNewRomanPSMT-43" x="319.384766"/>
      <use xlink:href="#TimesNewRomanPSMT-79" x="386.083984"/>
      <use xlink:href="#TimesNewRomanPSMT-63" x="436.083984"/>
      <use xlink:href="#TimesNewRomanPSMT-6c" x="480.46875"/>
      <use xlink:href="#TimesNewRomanPSMT-65" x="508.251953"/>
     </g>
    </g>
   </g>
   <g id="matplotlib.axis_2">
    <g id="ytick_1">
     <g id="line2d_8">
      <defs>
       <path id="m1b812363dd" d="M 0 0 
L 3.5 0 
" style="stroke: #000000; stroke-width: 0.8"/>
      </defs>
      <g>
       <use xlink:href="#m1b812363dd" x="40.657969" y="242.606769" style="stroke: #000000; stroke-width: 0.8"/>
      </g>
     </g>
     <g id="text_9">
      <!-- −14 -->
      <g transform="translate(20.736953 246.252238)scale(0.105 -0.105)">
       <defs>
        <path id="TimesNewRomanPSMT-2212" d="M 3484 2000 
L 116 2000 
L 116 2256 
L 3484 2256 
L 3484 2000 
z
" transform="scale(0.015625)"/>
        <path id="TimesNewRomanPSMT-34" d="M 2978 1563 
L 2978 1119 
L 2409 1119 
L 2409 0 
L 1894 0 
L 1894 1119 
L 100 1119 
L 100 1519 
L 2066 4325 
L 2409 4325 
L 2409 1563 
L 2978 1563 
z
M 1894 1563 
L 1894 3666 
L 406 1563 
L 1894 1563 
z
" transform="scale(0.015625)"/>
       </defs>
       <use xlink:href="#TimesNewRomanPSMT-2212"/>
       <use xlink:href="#TimesNewRomanPSMT-31" x="56.396484"/>
       <use xlink:href="#TimesNewRomanPSMT-34" x="106.396484"/>
      </g>
     </g>
    </g>
    <g id="ytick_2">
     <g id="line2d_9">
      <g>
       <use xlink:href="#m1b812363dd" x="40.657969" y="205.388308" style="stroke: #000000; stroke-width: 0.8"/>
      </g>
     </g>
     <g id="text_10">
      <!-- −12 -->
      <g transform="translate(20.736953 209.033776)scale(0.105 -0.105)">
       <use xlink:href="#TimesNewRomanPSMT-2212"/>
       <use xlink:href="#TimesNewRomanPSMT-31" x="56.396484"/>
       <use xlink:href="#TimesNewRomanPSMT-32" x="106.396484"/>
      </g>
     </g>
    </g>
    <g id="ytick_3">
     <g id="line2d_10">
      <g>
       <use xlink:href="#m1b812363dd" x="40.657969" y="168.169846" style="stroke: #000000; stroke-width: 0.8"/>
      </g>
     </g>
     <g id="text_11">
      <!-- −10 -->
      <g transform="translate(20.736953 171.815315)scale(0.105 -0.105)">
       <use xlink:href="#TimesNewRomanPSMT-2212"/>
       <use xlink:href="#TimesNewRomanPSMT-31" x="56.396484"/>
       <use xlink:href="#TimesNewRomanPSMT-30" x="106.396484"/>
      </g>
     </g>
    </g>
    <g id="ytick_4">
     <g id="line2d_11">
      <g>
       <use xlink:href="#m1b812363dd" x="40.657969" y="130.951385" style="stroke: #000000; stroke-width: 0.8"/>
      </g>
     </g>
     <g id="text_12">
      <!-- −8 -->
      <g transform="translate(25.986953 134.596853)scale(0.105 -0.105)">
       <defs>
        <path id="TimesNewRomanPSMT-38" d="M 1228 2134 
Q 725 2547 579 2797 
Q 434 3047 434 3316 
Q 434 3728 753 4026 
Q 1072 4325 1600 4325 
Q 2113 4325 2425 4047 
Q 2738 3769 2738 3413 
Q 2738 3175 2569 2928 
Q 2400 2681 1866 2347 
Q 2416 1922 2594 1678 
Q 2831 1359 2831 1006 
Q 2831 559 2490 242 
Q 2150 -75 1597 -75 
Q 994 -75 656 303 
Q 388 606 388 966 
Q 388 1247 577 1523 
Q 766 1800 1228 2134 
z
M 1719 2469 
Q 2094 2806 2194 3001 
Q 2294 3197 2294 3444 
Q 2294 3772 2109 3958 
Q 1925 4144 1606 4144 
Q 1288 4144 1088 3959 
Q 888 3775 888 3528 
Q 888 3366 970 3203 
Q 1053 3041 1206 2894 
L 1719 2469 
z
M 1375 2016 
Q 1116 1797 991 1539 
Q 866 1281 866 981 
Q 866 578 1086 336 
Q 1306 94 1647 94 
Q 1984 94 2187 284 
Q 2391 475 2391 747 
Q 2391 972 2272 1150 
Q 2050 1481 1375 2016 
z
" transform="scale(0.015625)"/>
       </defs>
       <use xlink:href="#TimesNewRomanPSMT-2212"/>
       <use xlink:href="#TimesNewRomanPSMT-38" x="56.396484"/>
      </g>
     </g>
    </g>
    <g id="ytick_5">
     <g id="line2d_12">
      <g>
       <use xlink:href="#m1b812363dd" x="40.657969" y="93.732923" style="stroke: #000000; stroke-width: 0.8"/>
      </g>
     </g>
     <g id="text_13">
      <!-- −6 -->
      <g transform="translate(25.986953 97.378392)scale(0.105 -0.105)">
       <defs>
        <path id="TimesNewRomanPSMT-36" d="M 2869 4325 
L 2869 4209 
Q 2456 4169 2195 4045 
Q 1934 3922 1679 3669 
Q 1425 3416 1258 3105 
Q 1091 2794 978 2366 
Q 1428 2675 1881 2675 
Q 2316 2675 2634 2325 
Q 2953 1975 2953 1425 
Q 2953 894 2631 456 
Q 2244 -75 1606 -75 
Q 1172 -75 869 213 
Q 275 772 275 1663 
Q 275 2231 503 2743 
Q 731 3256 1154 3653 
Q 1578 4050 1965 4187 
Q 2353 4325 2688 4325 
L 2869 4325 
z
M 925 2138 
Q 869 1716 869 1456 
Q 869 1156 980 804 
Q 1091 453 1309 247 
Q 1469 100 1697 100 
Q 1969 100 2183 356 
Q 2397 613 2397 1088 
Q 2397 1622 2184 2012 
Q 1972 2403 1581 2403 
Q 1463 2403 1327 2353 
Q 1191 2303 925 2138 
z
" transform="scale(0.015625)"/>
       </defs>
       <use xlink:href="#TimesNewRomanPSMT-2212"/>
       <use xlink:href="#TimesNewRomanPSMT-36" x="56.396484"/>
      </g>
     </g>
    </g>
    <g id="ytick_6">
     <g id="line2d_13">
      <g>
       <use xlink:href="#m1b812363dd" x="40.657969" y="56.514462" style="stroke: #000000; stroke-width: 0.8"/>
      </g>
     </g>
     <g id="text_14">
      <!-- −4 -->
      <g transform="translate(25.986953 60.15993)scale(0.105 -0.105)">
       <use xlink:href="#TimesNewRomanPSMT-2212"/>
       <use xlink:href="#TimesNewRomanPSMT-34" x="56.396484"/>
      </g>
     </g>
    </g>
    <g id="ytick_7">
     <g id="line2d_14">
      <g>
       <use xlink:href="#m1b812363dd" x="40.657969" y="19.296" style="stroke: #000000; stroke-width: 0.8"/>
      </g>
     </g>
     <g id="text_15">
      <!-- −2 -->
      <g transform="translate(25.986953 22.941469)scale(0.105 -0.105)">
       <use xlink:href="#TimesNewRomanPSMT-2212"/>
       <use xlink:href="#TimesNewRomanPSMT-32" x="56.396484"/>
      </g>
     </g>
    </g>
    <g id="text_16">
     <!-- SNR -->
     <g transform="translate(14.490938 150.468891)rotate(-90)scale(0.105 -0.105)">
      <defs>
       <path id="TimesNewRomanPSMT-53" d="M 2934 4334 
L 2934 2869 
L 2819 2869 
Q 2763 3291 2617 3541 
Q 2472 3791 2203 3937 
Q 1934 4084 1647 4084 
Q 1322 4084 1109 3886 
Q 897 3688 897 3434 
Q 897 3241 1031 3081 
Q 1225 2847 1953 2456 
Q 2547 2138 2764 1967 
Q 2981 1797 3098 1565 
Q 3216 1334 3216 1081 
Q 3216 600 2842 251 
Q 2469 -97 1881 -97 
Q 1697 -97 1534 -69 
Q 1438 -53 1133 45 
Q 828 144 747 144 
Q 669 144 623 97 
Q 578 50 556 -97 
L 441 -97 
L 441 1356 
L 556 1356 
Q 638 900 775 673 
Q 913 447 1195 297 
Q 1478 147 1816 147 
Q 2206 147 2432 353 
Q 2659 559 2659 841 
Q 2659 997 2573 1156 
Q 2488 1316 2306 1453 
Q 2184 1547 1640 1851 
Q 1097 2156 867 2337 
Q 638 2519 519 2737 
Q 400 2956 400 3219 
Q 400 3675 750 4004 
Q 1100 4334 1641 4334 
Q 1978 4334 2356 4169 
Q 2531 4091 2603 4091 
Q 2684 4091 2736 4139 
Q 2788 4188 2819 4334 
L 2934 4334 
z
" transform="scale(0.015625)"/>
       <path id="TimesNewRomanPSMT-4e" d="M -84 4238 
L 1066 4238 
L 3656 1059 
L 3656 3503 
Q 3656 3894 3569 3991 
Q 3453 4122 3203 4122 
L 3056 4122 
L 3056 4238 
L 4531 4238 
L 4531 4122 
L 4381 4122 
Q 4113 4122 4000 3959 
Q 3931 3859 3931 3503 
L 3931 -69 
L 3819 -69 
L 1025 3344 
L 1025 734 
Q 1025 344 1109 247 
Q 1228 116 1475 116 
L 1625 116 
L 1625 0 
L 150 0 
L 150 116 
L 297 116 
Q 569 116 681 278 
Q 750 378 750 734 
L 750 3681 
Q 566 3897 470 3965 
Q 375 4034 191 4094 
Q 100 4122 -84 4122 
L -84 4238 
z
" transform="scale(0.015625)"/>
       <path id="TimesNewRomanPSMT-52" d="M 4325 0 
L 3194 0 
L 1759 1981 
Q 1600 1975 1500 1975 
Q 1459 1975 1412 1976 
Q 1366 1978 1316 1981 
L 1316 750 
Q 1316 350 1403 253 
Q 1522 116 1759 116 
L 1925 116 
L 1925 0 
L 109 0 
L 109 116 
L 269 116 
Q 538 116 653 291 
Q 719 388 719 750 
L 719 3488 
Q 719 3888 631 3984 
Q 509 4122 269 4122 
L 109 4122 
L 109 4238 
L 1653 4238 
Q 2328 4238 2648 4139 
Q 2969 4041 3192 3777 
Q 3416 3513 3416 3147 
Q 3416 2756 3161 2468 
Q 2906 2181 2372 2063 
L 3247 847 
Q 3547 428 3762 290 
Q 3978 153 4325 116 
L 4325 0 
z
M 1316 2178 
Q 1375 2178 1419 2176 
Q 1463 2175 1491 2175 
Q 2097 2175 2405 2437 
Q 2713 2700 2713 3106 
Q 2713 3503 2464 3751 
Q 2216 4000 1806 4000 
Q 1625 4000 1316 3941 
L 1316 2178 
z
" transform="scale(0.015625)"/>
      </defs>
      <use xlink:href="#TimesNewRomanPSMT-53"/>
      <use xlink:href="#TimesNewRomanPSMT-4e" x="55.615234"/>
      <use xlink:href="#TimesNewRomanPSMT-52" x="127.832031"/>
     </g>
    </g>
   </g>
   <g id="line2d_15">
    <path d="M 56.890696 19.296 
L 68.08568 19.296 
L 79.280665 19.296 
L 90.475649 19.296 
L 101.670633 19.296 
L 112.865618 37.905231 
L 124.060602 19.296 
L 135.255586 37.905231 
L 146.450571 37.905231 
L 157.645555 19.296 
L 168.840539 37.905231 
L 180.035524 19.296 
L 191.230508 37.905231 
L 202.425492 19.296 
L 213.620477 37.905231 
L 224.815461 37.905231 
L 236.010445 37.905231 
L 247.20543 37.905231 
L 258.400414 37.905231 
L 269.595398 37.905231 
L 280.790383 37.905231 
L 291.985367 37.905231 
L 303.180351 37.905231 
L 314.375336 37.905231 
L 325.57032 19.296 
L 336.765304 37.905231 
L 347.960288 37.905231 
L 359.155273 37.905231 
L 370.350257 37.905231 
L 381.545241 19.296 
" clip-path="url(#p666169c146)" style="fill: none; stroke-dasharray: 5.55,2.4; stroke-dashoffset: 0; stroke: #000000; stroke-width: 1.5"/>
    <defs>
     <path id="me6344f6370" d="M 0 3 
C 0.795609 3 1.55874 2.683901 2.12132 2.12132 
C 2.683901 1.55874 3 0.795609 3 0 
C 3 -0.795609 2.683901 -1.55874 2.12132 -2.12132 
C 1.55874 -2.683901 0.795609 -3 0 -3 
C -0.795609 -3 -1.55874 -2.683901 -2.12132 -2.12132 
C -2.683901 -1.55874 -3 -0.795609 -3 0 
C -3 0.795609 -2.683901 1.55874 -2.12132 2.12132 
C -1.55874 2.683901 -0.795609 3 0 3 
z
" style="stroke: #000000"/>
    </defs>
    <g clip-path="url(#p666169c146)">
     <use xlink:href="#me6344f6370" x="56.890696" y="19.296" style="stroke: #000000"/>
     <use xlink:href="#me6344f6370" x="68.08568" y="19.296" style="stroke: #000000"/>
     <use xlink:href="#me6344f6370" x="79.280665" y="19.296" style="stroke: #000000"/>
     <use xlink:href="#me6344f6370" x="90.475649" y="19.296" style="stroke: #000000"/>
     <use xlink:href="#me6344f6370" x="101.670633" y="19.296" style="stroke: #000000"/>
     <use xlink:href="#me6344f6370" x="112.865618" y="37.905231" style="stroke: #000000"/>
     <use xlink:href="#me6344f6370" x="124.060602" y="19.296" style="stroke: #000000"/>
     <use xlink:href="#me6344f6370" x="135.255586" y="37.905231" style="stroke: #000000"/>
     <use xlink:href="#me6344f6370" x="146.450571" y="37.905231" style="stroke: #000000"/>
     <use xlink:href="#me6344f6370" x="157.645555" y="19.296" style="stroke: #000000"/>
     <use xlink:href="#me6344f6370" x="168.840539" y="37.905231" style="stroke: #000000"/>
     <use xlink:href="#me6344f6370" x="180.035524" y="19.296" style="stroke: #000000"/>
     <use xlink:href="#me6344f6370" x="191.230508" y="37.905231" style="stroke: #000000"/>
     <use xlink:href="#me6344f6370" x="202.425492" y="19.296" style="stroke: #000000"/>
     <use xlink:href="#me6344f6370" x="213.620477" y="37.905231" style="stroke: #000000"/>
     <use xlink:href="#me6344f6370" x="224.815461" y="37.905231" style="stroke: #000000"/>
     <use xlink:href="#me6344f6370" x="236.010445" y="37.905231" style="stroke: #000000"/>
     <use xlink:href="#me6344f6370" x="247.20543" y="37.905231" style="stroke: #000000"/>
     <use xlink:href="#me6344f6370" x="258.400414" y="37.905231" style="stroke: #000000"/>
     <use xlink:href="#me6344f6370" x="269.595398" y="37.905231" style="stroke: #000000"/>
     <use xlink:href="#me6344f6370" x="280.790383" y="37.905231" style="stroke: #000000"/>
     <use xlink:href="#me6344f6370" x="291.985367" y="37.905231" style="stroke: #000000"/>
     <use xlink:href="#me6344f6370" x="303.180351" y="37.905231" style="stroke: #000000"/>
     <use xlink:href="#me6344f6370" x="314.375336" y="37.905231" style="stroke: #000000"/>
     <use xlink:href="#me6344f6370" x="325.57032" y="19.296" style="stroke: #000000"/>
     <use xlink:href="#me6344f6370" x="336.765304" y="37.905231" style="stroke: #000000"/>
     <use xlink:href="#me6344f6370" x="347.960288" y="37.905231" style="stroke: #000000"/>
     <use xlink:href="#me6344f6370" x="359.155273" y="37.905231" style="stroke: #000000"/>
     <use xlink:href="#me6344f6370" x="370.350257" y="37.905231" style="stroke: #000000"/>
     <use xlink:href="#me6344f6370" x="381.545241" y="19.296" style="stroke: #000000"/>
    </g>
   </g>
   <g id="line2d_16">
    <path d="M 56.890696 37.905231 
L 68.08568 37.905231 
L 79.280665 37.905231 
L 90.475649 37.905231 
L 101.670633 261.216 
L 112.865618 223.997538 
L 124.060602 37.905231 
L 135.255586 37.905231 
L 146.450571 19.296 
L 157.645555 37.905231 
L 168.840539 19.296 
L 180.035524 19.296 
L 191.230508 19.296 
L 202.425492 19.296 
L 213.620477 37.905231 
L 224.815461 37.905231 
L 236.010445 37.905231 
L 247.20543 37.905231 
L 258.400414 37.905231 
L 269.595398 37.905231 
L 280.790383 37.905231 
L 291.985367 37.905231 
L 303.180351 37.905231 
L 314.375336 37.905231 
L 325.57032 56.514462 
L 336.765304 19.296 
L 347.960288 56.514462 
L 359.155273 56.514462 
L 370.350257 56.514462 
L 381.545241 37.905231 
" clip-path="url(#p666169c146)" style="fill: none; stroke-dasharray: 5.55,2.4; stroke-dashoffset: 0; stroke: #000000; stroke-width: 1.5"/>
    <defs>
     <path id="m894648f8fc" d="M -0 3 
L 3 -3 
L -3 -3 
z
" style="stroke: #000000; stroke-linejoin: miter"/>
    </defs>
    <g clip-path="url(#p666169c146)">
     <use xlink:href="#m894648f8fc" x="56.890696" y="37.905231" style="stroke: #000000; stroke-linejoin: miter"/>
     <use xlink:href="#m894648f8fc" x="68.08568" y="37.905231" style="stroke: #000000; stroke-linejoin: miter"/>
     <use xlink:href="#m894648f8fc" x="79.280665" y="37.905231" style="stroke: #000000; stroke-linejoin: miter"/>
     <use xlink:href="#m894648f8fc" x="90.475649" y="37.905231" style="stroke: #000000; stroke-linejoin: miter"/>
     <use xlink:href="#m894648f8fc" x="101.670633" y="261.216" style="stroke: #000000; stroke-linejoin: miter"/>
     <use xlink:href="#m894648f8fc" x="112.865618" y="223.997538" style="stroke: #000000; stroke-linejoin: miter"/>
     <use xlink:href="#m894648f8fc" x="124.060602" y="37.905231" style="stroke: #000000; stroke-linejoin: miter"/>
     <use xlink:href="#m894648f8fc" x="135.255586" y="37.905231" style="stroke: #000000; stroke-linejoin: miter"/>
     <use xlink:href="#m894648f8fc" x="146.450571" y="19.296" style="stroke: #000000; stroke-linejoin: miter"/>
     <use xlink:href="#m894648f8fc" x="157.645555" y="37.905231" style="stroke: #000000; stroke-linejoin: miter"/>
     <use xlink:href="#m894648f8fc" x="168.840539" y="19.296" style="stroke: #000000; stroke-linejoin: miter"/>
     <use xlink:href="#m894648f8fc" x="180.035524" y="19.296" style="stroke: #000000; stroke-linejoin: miter"/>
     <use xlink:href="#m894648f8fc" x="191.230508" y="19.296" style="stroke: #000000; stroke-linejoin: miter"/>
     <use xlink:href="#m894648f8fc" x="202.425492" y="19.296" style="stroke: #000000; stroke-linejoin: miter"/>
     <use xlink:href="#m894648f8fc" x="213.620477" y="37.905231" style="stroke: #000000; stroke-linejoin: miter"/>
     <use xlink:href="#m894648f8fc" x="224.815461" y="37.905231" style="stroke: #000000; stroke-linejoin: miter"/>
     <use xlink:href="#m894648f8fc" x="236.010445" y="37.905231" style="stroke: #000000; stroke-linejoin: miter"/>
     <use xlink:href="#m894648f8fc" x="247.20543" y="37.905231" style="stroke: #000000; stroke-linejoin: miter"/>
     <use xlink:href="#m894648f8fc" x="258.400414" y="37.905231" style="stroke: #000000; stroke-linejoin: miter"/>
     <use xlink:href="#m894648f8fc" x="269.595398" y="37.905231" style="stroke: #000000; stroke-linejoin: miter"/>
     <use xlink:href="#m894648f8fc" x="280.790383" y="37.905231" style="stroke: #000000; stroke-linejoin: miter"/>
     <use xlink:href="#m894648f8fc" x="291.985367" y="37.905231" style="stroke: #000000; stroke-linejoin: miter"/>
     <use xlink:href="#m894648f8fc" x="303.180351" y="37.905231" style="stroke: #000000; stroke-linejoin: miter"/>
     <use xlink:href="#m894648f8fc" x="314.375336" y="37.905231" style="stroke: #000000; stroke-linejoin: miter"/>
     <use xlink:href="#m894648f8fc" x="325.57032" y="56.514462" style="stroke: #000000; stroke-linejoin: miter"/>
     <use xlink:href="#m894648f8fc" x="336.765304" y="19.296" style="stroke: #000000; stroke-linejoin: miter"/>
     <use xlink:href="#m894648f8fc" x="347.960288" y="56.514462" style="stroke: #000000; stroke-linejoin: miter"/>
     <use xlink:href="#m894648f8fc" x="359.155273" y="56.514462" style="stroke: #000000; stroke-linejoin: miter"/>
     <use xlink:href="#m894648f8fc" x="370.350257" y="56.514462" style="stroke: #000000; stroke-linejoin: miter"/>
     <use xlink:href="#m894648f8fc" x="381.545241" y="37.905231" style="stroke: #000000; stroke-linejoin: miter"/>
    </g>
   </g>
   <g id="line2d_17">
    <path d="M 56.890696 37.905231 
L 68.08568 149.560615 
L 79.280665 149.560615 
L 90.475649 75.123692 
L 101.670633 75.123692 
L 112.865618 75.123692 
L 124.060602 75.123692 
L 135.255586 37.905231 
L 146.450571 19.296 
L 157.645555 19.296 
L 168.840539 37.905231 
L 180.035524 19.296 
L 191.230508 37.905231 
L 202.425492 37.905231 
L 213.620477 37.905231 
L 224.815461 112.342154 
L 236.010445 37.905231 
L 247.20543 112.342154 
L 258.400414 112.342154 
L 269.595398 112.342154 
L 280.790383 19.296 
L 291.985367 112.342154 
L 303.180351 186.779077 
L 314.375336 19.296 
L 325.57032 37.905231 
L 336.765304 19.296 
L 347.960288 37.905231 
L 359.155273 19.296 
L 370.350257 19.296 
L 381.545241 37.905231 
" clip-path="url(#p666169c146)" style="fill: none; stroke-dasharray: 5.55,2.4; stroke-dashoffset: 0; stroke: #000000; stroke-width: 1.5"/>
    <defs>
     <path id="medb84386a6" d="M 0 0 
L 0 3 
M 0 0 
L 2.4 -1.5 
M 0 0 
L -2.4 -1.5 
" style="stroke: #000000"/>
    </defs>
    <g clip-path="url(#p666169c146)">
     <use xlink:href="#medb84386a6" x="56.890696" y="37.905231" style="stroke: #000000"/>
     <use xlink:href="#medb84386a6" x="68.08568" y="149.560615" style="stroke: #000000"/>
     <use xlink:href="#medb84386a6" x="79.280665" y="149.560615" style="stroke: #000000"/>
     <use xlink:href="#medb84386a6" x="90.475649" y="75.123692" style="stroke: #000000"/>
     <use xlink:href="#medb84386a6" x="101.670633" y="75.123692" style="stroke: #000000"/>
     <use xlink:href="#medb84386a6" x="112.865618" y="75.123692" style="stroke: #000000"/>
     <use xlink:href="#medb84386a6" x="124.060602" y="75.123692" style="stroke: #000000"/>
     <use xlink:href="#medb84386a6" x="135.255586" y="37.905231" style="stroke: #000000"/>
     <use xlink:href="#medb84386a6" x="146.450571" y="19.296" style="stroke: #000000"/>
     <use xlink:href="#medb84386a6" x="157.645555" y="19.296" style="stroke: #000000"/>
     <use xlink:href="#medb84386a6" x="168.840539" y="37.905231" style="stroke: #000000"/>
     <use xlink:href="#medb84386a6" x="180.035524" y="19.296" style="stroke: #000000"/>
     <use xlink:href="#medb84386a6" x="191.230508" y="37.905231" style="stroke: #000000"/>
     <use xlink:href="#medb84386a6" x="202.425492" y="37.905231" style="stroke: #000000"/>
     <use xlink:href="#medb84386a6" x="213.620477" y="37.905231" style="stroke: #000000"/>
     <use xlink:href="#medb84386a6" x="224.815461" y="112.342154" style="stroke: #000000"/>
     <use xlink:href="#medb84386a6" x="236.010445" y="37.905231" style="stroke: #000000"/>
     <use xlink:href="#medb84386a6" x="247.20543" y="112.342154" style="stroke: #000000"/>
     <use xlink:href="#medb84386a6" x="258.400414" y="112.342154" style="stroke: #000000"/>
     <use xlink:href="#medb84386a6" x="269.595398" y="112.342154" style="stroke: #000000"/>
     <use xlink:href="#medb84386a6" x="280.790383" y="19.296" style="stroke: #000000"/>
     <use xlink:href="#medb84386a6" x="291.985367" y="112.342154" style="stroke: #000000"/>
     <use xlink:href="#medb84386a6" x="303.180351" y="186.779077" style="stroke: #000000"/>
     <use xlink:href="#medb84386a6" x="314.375336" y="19.296" style="stroke: #000000"/>
     <use xlink:href="#medb84386a6" x="325.57032" y="37.905231" style="stroke: #000000"/>
     <use xlink:href="#medb84386a6" x="336.765304" y="19.296" style="stroke: #000000"/>
     <use xlink:href="#medb84386a6" x="347.960288" y="37.905231" style="stroke: #000000"/>
     <use xlink:href="#medb84386a6" x="359.155273" y="19.296" style="stroke: #000000"/>
     <use xlink:href="#medb84386a6" x="370.350257" y="19.296" style="stroke: #000000"/>
     <use xlink:href="#medb84386a6" x="381.545241" y="37.905231" style="stroke: #000000"/>
    </g>
   </g>
   <g id="patch_3">
    <path d="M 40.657969 273.312 
L 40.657969 7.2 
" style="fill: none; stroke: #000000; stroke-width: 0.8; stroke-linejoin: miter; stroke-linecap: square"/>
   </g>
   <g id="patch_4">
    <path d="M 397.777969 273.312 
L 397.777969 7.2 
" style="fill: none; stroke: #000000; stroke-width: 0.8; stroke-linejoin: miter; stroke-linecap: square"/>
   </g>
   <g id="patch_5">
    <path d="M 40.657969 273.312 
L 397.777969 273.312 
" style="fill: none; stroke: #000000; stroke-width: 0.8; stroke-linejoin: miter; stroke-linecap: square"/>
   </g>
   <g id="patch_6">
    <path d="M 40.657969 7.2 
L 397.777969 7.2 
" style="fill: none; stroke: #000000; stroke-width: 0.8; stroke-linejoin: miter; stroke-linecap: square"/>
   </g>
   <g id="legend_1">
    <g id="patch_7">
     <path d="M 351.577969 268.062 
L 390.427969 268.062 
Q 392.527969 268.062 392.527969 265.962 
L 392.527969 222.473953 
Q 392.527969 220.373953 390.427969 220.373953 
L 351.577969 220.373953 
Q 349.477969 220.373953 349.477969 222.473953 
L 349.477969 265.962 
Q 349.477969 268.062 351.577969 268.062 
z
" style="fill: #ffffff; opacity: 0.8; stroke: #cccccc; stroke-linejoin: miter"/>
    </g>
    <g id="line2d_18">
     <path d="M 353.677969 228.248953 
L 364.177969 228.248953 
L 374.677969 228.248953 
" style="fill: none; stroke-dasharray: 5.55,2.4; stroke-dashoffset: 0; stroke: #000000; stroke-width: 1.5"/>
     <g>
      <use xlink:href="#me6344f6370" x="364.177969" y="228.248953" style="stroke: #000000"/>
     </g>
    </g>
    <g id="text_17">
     <!-- 3 -->
     <g transform="translate(383.077969 231.923953)scale(0.105 -0.105)">
      <use xlink:href="#TimesNewRomanPSMT-33"/>
     </g>
    </g>
    <g id="line2d_19">
     <path d="M 353.677969 243.094969 
L 364.177969 243.094969 
L 374.677969 243.094969 
" style="fill: none; stroke-dasharray: 5.55,2.4; stroke-dashoffset: 0; stroke: #000000; stroke-width: 1.5"/>
     <g>
      <use xlink:href="#m894648f8fc" x="364.177969" y="243.094969" style="stroke: #000000; stroke-linejoin: miter"/>
     </g>
    </g>
    <g id="text_18">
     <!-- 4 -->
     <g transform="translate(383.077969 246.769969)scale(0.105 -0.105)">
      <use xlink:href="#TimesNewRomanPSMT-34"/>
     </g>
    </g>
    <g id="line2d_20">
     <path d="M 353.677969 257.940984 
L 364.177969 257.940984 
L 374.677969 257.940984 
" style="fill: none; stroke-dasharray: 5.55,2.4; stroke-dashoffset: 0; stroke: #000000; stroke-width: 1.5"/>
     <g>
      <use xlink:href="#medb84386a6" x="364.177969" y="257.940984" style="stroke: #000000"/>
     </g>
    </g>
    <g id="text_19">
     <!-- 5 -->
     <g transform="translate(383.077969 261.615984)scale(0.105 -0.105)">
      <use xlink:href="#TimesNewRomanPSMT-35"/>
     </g>
    </g>
   </g>
  </g>
 </g>
 <defs>
  <clipPath id="p666169c146">
   <rect x="40.657969" y="7.2" width="357.12" height="266.112"/>
  </clipPath>
 </defs>
</svg>
